<svg width="65" height="64" viewBox="0 0 65 64" fill="none" xmlns="http://www.w3.org/2000/svg">
<mask id="mask0_59_877" style="mask-type:luminance" maskUnits="userSpaceOnUse" x="0" y="0" width="65" height="64">
<path d="M0.493408 0H64.4934V64H0.493408V0Z" fill="white"/>
</mask>
<g mask="url(#mask0_59_877)">
<path d="M64.4934 32C64.4934 32.5233 64.4801 33.0467 64.4545 33.57C64.429 34.0933 64.3912 34.6156 64.339 35.1367C64.2879 35.6578 64.2234 36.1778 64.1467 36.6956C64.0701 37.2133 63.9812 37.7289 63.879 38.2433C63.7767 38.7567 63.6612 39.2678 63.5345 39.7756C63.4067 40.2833 63.2679 40.7878 63.1156 41.2889C62.9634 41.79 62.799 42.2878 62.6223 42.78C62.4467 43.2733 62.2579 43.7622 62.0579 44.2456C61.8567 44.73 61.6445 45.2078 61.4212 45.6822C61.1967 46.1556 60.9623 46.6233 60.7145 47.0844C60.4679 47.5467 60.2101 48.0022 59.9412 48.4511C59.6712 48.9 59.3912 49.3433 59.1001 49.7778C58.809 50.2133 58.5079 50.6422 58.1956 51.0622C57.8845 51.4833 57.5623 51.8956 57.2301 52.3011C56.8979 52.7056 56.5556 53.1022 56.2034 53.49C55.8523 53.8778 55.4912 54.2567 55.1212 54.6278C54.7501 54.9978 54.3712 55.3589 53.9834 55.71C53.5956 56.0622 53.199 56.4044 52.7945 56.7367C52.389 57.0689 51.9767 57.3911 51.5556 57.7022C51.1356 58.0144 50.7067 58.3156 50.2712 58.6067C49.8367 58.8978 49.3934 59.1778 48.9445 59.4478C48.4956 59.7167 48.0401 59.9744 47.5779 60.2211C47.1167 60.4689 46.649 60.7033 46.1756 60.9278C45.7012 61.1511 45.2234 61.3633 44.739 61.5644C44.2556 61.7644 43.7667 61.9533 43.2734 62.1289C42.7812 62.3056 42.2834 62.47 41.7823 62.6222C41.2812 62.7744 40.7767 62.9133 40.269 63.0411C39.7612 63.1678 39.2501 63.2833 38.7367 63.3856C38.2223 63.4878 37.7067 63.5767 37.189 63.6533C36.6712 63.73 36.1512 63.7944 35.6301 63.8456C35.109 63.8978 34.5867 63.9356 34.0634 63.9611C33.5401 63.9867 33.0167 64 32.4934 64C31.9701 64 31.4467 63.9867 30.9234 63.9611C30.4001 63.9356 29.8779 63.8978 29.3567 63.8456C28.8356 63.7944 28.3156 63.73 27.7979 63.6533C27.2801 63.5767 26.7645 63.4878 26.2501 63.3856C25.7367 63.2833 25.2256 63.1678 24.7179 63.0411C24.2101 62.9133 23.7056 62.7744 23.2045 62.6222C22.7034 62.47 22.2056 62.3056 21.7134 62.1289C21.2201 61.9533 20.7312 61.7644 20.2479 61.5644C19.7634 61.3633 19.2845 61.1511 18.8112 60.9278C18.3379 60.7033 17.8701 60.4689 17.409 60.2211C16.9467 59.9744 16.4912 59.7167 16.0423 59.4478C15.5934 59.1778 15.1501 58.8978 14.7156 58.6067C14.2801 58.3156 13.8512 58.0144 13.4312 57.7022C13.0101 57.3911 12.5979 57.0689 12.1923 56.7367C11.7879 56.4044 11.3912 56.0622 11.0034 55.71C10.6156 55.3589 10.2367 54.9978 9.86563 54.6278C9.49563 54.2567 9.13452 53.8778 8.78341 53.49C8.43119 53.1022 8.08896 52.7056 7.75674 52.3011C7.42452 51.8956 7.1023 51.4833 6.79119 51.0622C6.47896 50.6422 6.17785 50.2133 5.88674 49.7778C5.59563 49.3433 5.31563 48.9 5.04563 48.4511C4.77674 48.0022 4.51896 47.5467 4.2723 47.0844C4.02452 46.6233 3.79008 46.1556 3.56563 45.6822C3.3423 45.2078 3.13007 44.73 2.92896 44.2456C2.72896 43.7622 2.54007 43.2733 2.36452 42.78C2.18785 42.2878 2.02341 41.79 1.87119 41.2889C1.71896 40.7878 1.58007 40.2833 1.4523 39.7756C1.32563 39.2678 1.21007 38.7567 1.10785 38.2433C1.00563 37.7289 0.916741 37.2133 0.840075 36.6956C0.763408 36.1778 0.698964 35.6578 0.647853 35.1367C0.59563 34.6156 0.557852 34.0933 0.532297 33.57C0.506741 33.0467 0.493408 32.5233 0.493408 32C0.493408 31.4767 0.506741 30.9533 0.532297 30.43C0.557852 29.9067 0.59563 29.3844 0.647853 28.8633C0.698964 28.3422 0.763408 27.8222 0.840075 27.3044C0.916741 26.7867 1.00563 26.2711 1.10785 25.7567C1.21007 25.2433 1.32563 24.7322 1.4523 24.2244C1.58007 23.7167 1.71896 23.2122 1.87119 22.7111C2.02341 22.21 2.18785 21.7122 2.36452 21.22C2.54007 20.7267 2.72896 20.2378 2.92896 19.7544C3.13007 19.27 3.3423 18.7911 3.56563 18.3178C3.79008 17.8444 4.02452 17.3767 4.2723 16.9156C4.51896 16.4533 4.77674 15.9978 5.04563 15.5489C5.31563 15.1 5.59563 14.6567 5.88674 14.2222C6.17785 13.7867 6.47896 13.3578 6.79119 12.9378C7.1023 12.5167 7.42452 12.1044 7.75674 11.6989C8.08896 11.2944 8.43119 10.8978 8.78341 10.51C9.13452 10.1222 9.49563 9.74333 9.86563 9.37222C10.2367 9.00222 10.6156 8.64111 11.0034 8.29C11.3912 7.93778 11.7879 7.59556 12.1923 7.26333C12.5979 6.93111 13.0101 6.60889 13.4312 6.29778C13.8512 5.98556 14.2801 5.68444 14.7156 5.39333C15.1501 5.10222 15.5934 4.82222 16.0423 4.55222C16.4912 4.28333 16.9467 4.02556 17.409 3.77889C17.8701 3.53111 18.3379 3.29667 18.8112 3.07222C19.2845 2.84889 19.7634 2.63667 20.2479 2.43556C20.7312 2.23556 21.2201 2.04667 21.7134 1.87111C22.2056 1.69444 22.7034 1.53 23.2045 1.37778C23.7056 1.22556 24.2101 1.08667 24.7179 0.958889C25.2256 0.832222 25.7367 0.716667 26.2501 0.614444C26.7645 0.512222 27.2801 0.423333 27.7979 0.346667C28.3156 0.27 28.8356 0.205555 29.3567 0.154444C29.8779 0.102222 30.4001 0.0644442 30.9234 0.0388889C31.4467 0.0133333 31.9701 0 32.4934 0C33.0167 0 33.5401 0.0133333 34.0634 0.0388889C34.5867 0.0644442 35.109 0.102222 35.6301 0.154444C36.1512 0.205555 36.6712 0.27 37.189 0.346667C37.7067 0.423333 38.2223 0.512222 38.7367 0.614444C39.2501 0.716667 39.7612 0.832222 40.269 0.958889C40.7767 1.08667 41.2812 1.22556 41.7823 1.37778C42.2834 1.53 42.7812 1.69444 43.2734 1.87111C43.7667 2.04667 44.2556 2.23556 44.739 2.43556C45.2234 2.63667 45.7012 2.84889 46.1756 3.07222C46.649 3.29667 47.1167 3.53111 47.5779 3.77889C48.0401 4.02556 48.4956 4.28333 48.9445 4.55222C49.3934 4.82222 49.8367 5.10222 50.2712 5.39333C50.7067 5.68444 51.1356 5.98556 51.5556 6.29778C51.9767 6.60889 52.389 6.93111 52.7945 7.26333C53.199 7.59556 53.5956 7.93778 53.9834 8.29C54.3712 8.64111 54.7501 9.00222 55.1212 9.37222C55.4912 9.74333 55.8523 10.1222 56.2034 10.51C56.5556 10.8978 56.8979 11.2944 57.2301 11.6989C57.5623 12.1044 57.8845 12.5167 58.1956 12.9378C58.5079 13.3578 58.809 13.7867 59.1001 14.2222C59.3912 14.6567 59.6712 15.1 59.9412 15.5489C60.2101 15.9978 60.4679 16.4533 60.7145 16.9156C60.9623 17.3767 61.1967 17.8444 61.4212 18.3178C61.6445 18.7911 61.8567 19.27 62.0579 19.7544C62.2579 20.2378 62.4467 20.7267 62.6223 21.22C62.799 21.7122 62.9634 22.21 63.1156 22.7111C63.2679 23.2122 63.4067 23.7167 63.5345 24.2244C63.6612 24.7322 63.7767 25.2433 63.879 25.7567C63.9812 26.2711 64.0701 26.7867 64.1467 27.3044C64.2234 27.8222 64.2879 28.3422 64.339 28.8633C64.3912 29.3844 64.429 29.9067 64.4545 30.43C64.4801 30.9533 64.4934 31.4767 64.4934 32Z" fill="#7D2AE7"/>
</g>
<path d="M58.0168 33.7544C57.9312 33.7544 57.8546 33.8122 57.8168 33.9266C57.2979 35.4033 56.5968 36.2855 56.0201 36.2855C55.689 36.2855 55.5557 35.9166 55.5557 35.3366C55.5557 33.891 56.4246 30.8222 56.8579 29.421C56.909 29.2766 56.9379 29.1255 56.9446 28.9722C56.9446 28.5644 56.7212 28.3633 56.1701 28.3633C55.619 28.3633 54.9346 28.5988 54.3168 29.6888C54.1001 28.7266 53.4512 28.3066 52.5434 28.3066C51.4957 28.3066 50.4834 28.981 49.649 30.0733C48.8157 31.1655 47.8379 31.5288 47.099 31.3499C47.6301 30.0544 47.8246 29.0833 47.8246 28.3633C47.8246 27.2333 47.2679 26.5522 46.3668 26.5522C44.9934 26.5522 44.2046 27.861 44.2046 29.2366C44.2046 30.2999 44.6857 31.3955 45.749 31.9266C44.8601 33.9355 43.5612 35.7544 43.0679 35.7544C42.4312 35.7544 42.2434 32.6399 42.2812 30.411C42.3001 29.1344 42.409 29.0677 42.409 28.6788C42.409 28.4588 42.2623 28.3066 41.6857 28.3066C40.339 28.3066 39.919 29.4499 39.8579 30.761C39.8346 31.2588 39.7568 31.7522 39.6257 32.2322C39.059 34.2444 37.9001 35.7699 37.1423 35.7699C36.789 35.7699 36.6968 35.4166 36.6968 34.9577C36.6968 33.5122 37.5057 31.701 37.5057 30.1599C37.5057 29.0233 37.009 28.3066 36.069 28.3066C34.9679 28.3066 33.5057 29.621 32.1246 32.0799C32.579 30.1977 32.7646 28.3733 31.4201 28.3733C31.1279 28.3777 30.8412 28.4522 30.5834 28.5899C30.3979 28.6855 30.3001 28.8577 30.3123 29.0488C30.4401 31.0577 28.6946 36.1933 27.039 36.1933C26.7368 36.1933 26.5934 35.8688 26.5934 35.3399C26.5934 33.8944 27.4568 30.831 27.889 29.4277C27.9423 29.2744 27.9712 29.1144 27.9757 28.9533C27.9757 28.571 27.7401 28.3733 27.2012 28.3733C26.609 28.3733 25.969 28.5988 25.3479 29.6888C25.1323 28.7266 24.4823 28.3066 23.5779 28.3066C22.0912 28.3066 20.4257 29.8788 19.6968 31.9333C18.719 34.671 16.7479 37.3144 14.0957 37.3144C11.689 37.3144 10.4179 35.311 10.4179 32.1499C10.4179 27.5777 13.7746 23.8455 16.2612 23.8455C17.4523 23.8455 18.019 24.6033 18.019 25.7655C18.019 27.1733 17.2357 27.8255 17.2357 28.361C17.2357 28.5233 17.369 28.6855 17.6401 28.6855C18.7223 28.6855 19.9923 27.4144 19.9923 25.6833C19.9923 23.951 18.589 22.6799 16.099 22.6799C11.9879 22.6799 7.849 26.8199 7.849 32.121C7.849 36.3399 9.93122 38.8844 13.529 38.8844C15.9846 38.8844 18.1301 36.9766 19.289 34.7444C19.4201 36.5944 20.2568 37.5566 21.5334 37.5566C22.6701 37.5566 23.5912 36.881 24.2946 35.6899C24.5646 36.9355 25.2812 37.5466 26.2146 37.5466C27.2846 37.5466 28.1757 36.8688 29.0257 35.611C29.0134 36.5977 29.239 37.5277 30.0957 37.5277C30.5001 37.5277 30.9846 37.4355 31.0701 37.0822C31.9679 33.3533 34.2001 30.3088 34.8812 30.3088C35.0823 30.3088 35.1368 30.4999 35.1368 30.7322C35.1368 31.7455 34.4223 33.821 34.4223 35.1455C34.4223 36.5822 35.0312 37.5277 36.289 37.5277C37.6834 37.5277 39.1001 35.821 40.0457 33.3244C40.3423 35.6555 40.9823 37.5366 41.979 37.5366C43.2079 37.5366 45.389 34.9544 46.7101 32.2166C47.2268 32.2833 48.0068 32.2677 48.7512 31.7388C48.4357 32.5444 48.2479 33.4266 48.2479 34.3055C48.2479 36.8466 49.4579 37.5566 50.5023 37.5566C51.639 37.5566 52.559 36.881 53.2634 35.6899C53.4957 36.7633 54.0879 37.5433 55.1801 37.5433C56.8868 37.5433 58.3701 35.7988 58.3701 34.3655C58.3701 33.9866 58.2079 33.7544 58.0168 33.7544ZM22.5779 36.1522C21.8868 36.1522 21.6168 35.4544 21.6168 34.4199C21.6168 32.6244 22.8457 29.6177 24.1479 29.6177C24.7146 29.6177 24.9312 30.2899 24.9312 31.1088C24.9312 32.9333 23.7623 36.1522 22.5779 36.1522ZM46.1979 30.7833C45.7868 30.2933 45.6379 29.6244 45.6379 29.0322C45.6379 28.2999 45.9046 27.6822 46.2268 27.6822C46.5479 27.6822 46.6434 27.9977 46.6434 28.4366C46.6434 29.1688 46.3823 30.2455 46.1979 30.7833ZM51.5434 36.1522C50.8557 36.1522 50.5857 35.3533 50.5857 34.4199C50.5857 32.6844 51.8146 29.6177 53.1268 29.6177C53.6934 29.6177 53.8968 30.281 53.8968 31.1088C53.8968 32.9333 52.7479 36.1522 51.5434 36.1522Z" fill="white"/>
</svg>
