<svg width="64" height="64" viewBox="0 0 64 64" fill="none" xmlns="http://www.w3.org/2000/svg">
<path d="M54 4H10C6.6875 4 4 6.6875 4 10V54C4 57.3125 6.6875 60 10 60H54C57.3125 60 60 57.3125 60 54V10C60 6.6875 57.3125 4 54 4ZM38.6625 51.9625C37.6125 52.15 37.225 51.5 37.225 50.9625C37.225 50.2875 37.25 46.8375 37.25 44.05C37.25 42.1 36.6 40.8625 35.8375 40.2125C40.4625 39.7 45.3375 39.0625 45.3375 31.075C45.3375 28.8 44.525 27.6625 43.2 26.2C43.4125 25.6625 44.125 23.45 42.9875 20.575C41.25 20.0375 37.275 22.8125 37.275 22.8125C35.625 22.35 33.8375 22.1125 32.075 22.1125C30.3125 22.1125 28.525 22.35 26.875 22.8125C26.875 22.8125 22.9 20.0375 21.1625 20.575C20.025 23.4375 20.725 25.65 20.95 26.2C19.625 27.6625 19 28.8 19 31.075C19 39.025 23.6625 39.7 28.2875 40.2125C27.6875 40.75 27.15 41.675 26.9625 43C25.775 43.5375 22.7375 44.4625 20.925 41.2625C19.7875 39.2875 17.7375 39.125 17.7375 39.125C15.7125 39.1 17.6 40.4 17.6 40.4C18.95 41.025 19.9 43.425 19.9 43.425C21.1125 47.1375 26.9125 45.8875 26.9125 45.8875C26.9125 47.625 26.9375 50.45 26.9375 50.9625C26.9375 51.5 26.5625 52.15 25.5 51.9625C17.25 49.2 11.475 41.35 11.475 32.175C11.475 20.7 20.25 11.9875 31.725 11.9875C43.2 11.9875 52.5 20.7 52.5 32.175C52.5125 41.35 46.9125 49.2125 38.6625 51.9625ZM26.4 44.325C26.1625 44.375 25.9375 44.275 25.9125 44.1125C25.8875 43.925 26.05 43.7625 26.2875 43.7125C26.525 43.6875 26.75 43.7875 26.775 43.95C26.8125 44.1125 26.65 44.275 26.4 44.325ZM25.2125 44.2125C25.2125 44.375 25.025 44.5125 24.775 44.5125C24.5 44.5375 24.3125 44.4 24.3125 44.2125C24.3125 44.05 24.5 43.9125 24.75 43.9125C24.9875 43.8875 25.2125 44.025 25.2125 44.2125ZM23.5 44.075C23.45 44.2375 23.2 44.3125 22.9875 44.2375C22.75 44.1875 22.5875 44 22.6375 43.8375C22.6875 43.675 22.9375 43.6 23.15 43.65C23.4 43.725 23.5625 43.9125 23.5 44.075ZM21.9625 43.4C21.85 43.5375 21.6125 43.5125 21.425 43.325C21.2375 43.1625 21.1875 42.925 21.3125 42.8125C21.425 42.675 21.6625 42.7 21.85 42.8875C22.0125 43.05 22.075 43.3 21.9625 43.4ZM20.825 42.2625C20.7125 42.3375 20.5 42.2625 20.3625 42.075C20.225 41.8875 20.225 41.675 20.3625 41.5875C20.5 41.475 20.7125 41.5625 20.825 41.75C20.9625 41.9375 20.9625 42.1625 20.825 42.2625ZM20.0125 41.05C19.9 41.1625 19.7125 41.1 19.575 40.975C19.4375 40.8125 19.4125 40.625 19.525 40.5375C19.6375 40.425 19.825 40.4875 19.9625 40.6125C20.1 40.775 20.125 40.9625 20.0125 41.05ZM19.175 40.125C19.125 40.2375 18.9625 40.2625 18.825 40.175C18.6625 40.1 18.5875 39.9625 18.6375 39.85C18.6875 39.775 18.825 39.7375 18.9875 39.8C19.15 39.8875 19.225 40.025 19.175 40.125Z" fill="white"/>
</svg>
