<svg width="65" height="64" viewBox="0 0 65 64" fill="none" xmlns="http://www.w3.org/2000/svg">
<path d="M54.9351 4H10.9351C7.62256 4 4.93506 6.6875 4.93506 10V54C4.93506 57.3125 7.62256 60 10.9351 60H54.9351C58.2476 60 60.9351 57.3125 60.9351 54V10C60.9351 6.6875 58.2476 4 54.9351 4ZM39.5976 51.9625C38.5476 52.15 38.1601 51.5 38.1601 50.9625C38.1601 50.2875 38.1851 46.8375 38.1851 44.05C38.1851 42.1 37.5351 40.8625 36.7726 40.2125C41.3976 39.7 46.2726 39.0625 46.2726 31.075C46.2726 28.8 45.4601 27.6625 44.1351 26.2C44.3476 25.6625 45.0601 23.45 43.9226 20.575C42.1851 20.0375 38.2101 22.8125 38.2101 22.8125C36.5601 22.35 34.7726 22.1125 33.0101 22.1125C31.2476 22.1125 29.4601 22.35 27.8101 22.8125C27.8101 22.8125 23.8351 20.0375 22.0976 20.575C20.9601 23.4375 21.6601 25.65 21.8851 26.2C20.5601 27.6625 19.9351 28.8 19.9351 31.075C19.9351 39.025 24.5976 39.7 29.2226 40.2125C28.6226 40.75 28.0851 41.675 27.8976 43C26.7101 43.5375 23.6726 44.4625 21.8601 41.2625C20.7226 39.2875 18.6726 39.125 18.6726 39.125C16.6476 39.1 18.5351 40.4 18.5351 40.4C19.8851 41.025 20.8351 43.425 20.8351 43.425C22.0476 47.1375 27.8476 45.8875 27.8476 45.8875C27.8476 47.625 27.8726 50.45 27.8726 50.9625C27.8726 51.5 27.4976 52.15 26.4351 51.9625C18.1851 49.2 12.4101 41.35 12.4101 32.175C12.4101 20.7 21.1851 11.9875 32.6601 11.9875C44.1351 11.9875 53.4351 20.7 53.4351 32.175C53.4476 41.35 47.8476 49.2125 39.5976 51.9625ZM27.3351 44.325C27.0976 44.375 26.8726 44.275 26.8476 44.1125C26.8226 43.925 26.9851 43.7625 27.2226 43.7125C27.4601 43.6875 27.6851 43.7875 27.7101 43.95C27.7476 44.1125 27.5851 44.275 27.3351 44.325ZM26.1476 44.2125C26.1476 44.375 25.9601 44.5125 25.7101 44.5125C25.4351 44.5375 25.2476 44.4 25.2476 44.2125C25.2476 44.05 25.4351 43.9125 25.6851 43.9125C25.9226 43.8875 26.1476 44.025 26.1476 44.2125ZM24.4351 44.075C24.3851 44.2375 24.1351 44.3125 23.9226 44.2375C23.6851 44.1875 23.5226 44 23.5726 43.8375C23.6226 43.675 23.8726 43.6 24.0851 43.65C24.3351 43.725 24.4976 43.9125 24.4351 44.075ZM22.8976 43.4C22.7851 43.5375 22.5476 43.5125 22.3601 43.325C22.1726 43.1625 22.1226 42.925 22.2476 42.8125C22.3601 42.675 22.5976 42.7 22.7851 42.8875C22.9476 43.05 23.0101 43.3 22.8976 43.4ZM21.7601 42.2625C21.6476 42.3375 21.4351 42.2625 21.2976 42.075C21.1601 41.8875 21.1601 41.675 21.2976 41.5875C21.4351 41.475 21.6476 41.5625 21.7601 41.75C21.8976 41.9375 21.8976 42.1625 21.7601 42.2625ZM20.9476 41.05C20.8351 41.1625 20.6476 41.1 20.5101 40.975C20.3726 40.8125 20.3476 40.625 20.4601 40.5375C20.5726 40.425 20.7601 40.4875 20.8976 40.6125C21.0351 40.775 21.0601 40.9625 20.9476 41.05ZM20.1101 40.125C20.0601 40.2375 19.8976 40.2625 19.7601 40.175C19.5976 40.1 19.5226 39.9625 19.5726 39.85C19.6226 39.775 19.7601 39.7375 19.9226 39.8C20.0851 39.8875 20.1601 40.025 20.1101 40.125Z" fill="black"/>
</svg>
