<svg width="65" height="64" viewBox="0 0 65 64" fill="none" xmlns="http://www.w3.org/2000/svg">
<g clip-path="url(#clip0_5_2275)">
<path d="M54.146 -0.0776367H10.8813C5.17902 -0.0776367 0.556396 4.53766 0.556396 10.2309V53.6912C0.556396 59.3844 5.17902 63.9997 10.8813 63.9997H54.146C59.8483 63.9997 64.4709 59.3844 64.4709 53.6912V10.2309C64.4709 4.53766 59.8483 -0.0776367 54.146 -0.0776367Z" fill="url(#paint0_linear_5_2275)"/>
<path d="M32.996 27.5077C34.6286 27.5077 35.8658 27.1587 36.709 26.4444C37.5523 25.7301 37.9737 24.6898 37.9737 23.3075C37.9737 21.9427 37.5523 20.9058 36.709 20.197C35.8603 19.4702 34.6281 19.1068 32.996 19.1068H27.2643V27.5082L32.996 27.5077ZM33.3454 44.8687C35.4259 44.8687 36.9866 44.435 38.0271 43.5661C39.0856 42.6978 39.6148 41.3863 39.6148 39.6317C39.6148 37.9119 39.0945 36.6273 38.0541 35.7769C37.0136 34.9086 35.4444 34.4744 33.3459 34.4744H27.2648V44.8697H33.3459M42.9784 30.5933C45.2026 31.2313 46.9246 32.4102 48.1443 34.129C49.364 35.8477 49.9736 37.9573 49.9741 40.4566C49.9741 44.285 48.6646 47.1387 46.0459 49.0175C43.4272 50.8963 39.4455 51.8354 34.0998 51.8354H16.907V12.1421H32.4592C38.0376 12.1421 42.0737 12.9745 44.5665 14.641C47.0779 16.3069 48.3335 18.9747 48.3335 22.6435C48.3335 24.5756 47.8762 26.2236 46.9615 27.5884C46.0469 28.9353 44.7148 29.9313 42.9794 30.5928" fill="white"/>
</g>
<defs>
<linearGradient id="paint0_linear_5_2275" x1="4.2435" y1="60.6769" x2="60.4468" y2="3.40126" gradientUnits="userSpaceOnUse">
<stop stop-color="#070135"/>
<stop offset="1" stop-color="#612D50"/>
</linearGradient>
<clipPath id="clip0_5_2275">
<rect width="64" height="64" fill="white" transform="translate(0.45459)"/>
</clipPath>
</defs>
</svg>
