<svg width="71" height="64" viewBox="0 0 71 64" fill="none" xmlns="http://www.w3.org/2000/svg">
<g clip-path="url(#clip0_4_940)">
<path d="M35.8183 38.7725C39.4906 38.7725 42.4676 35.7404 42.4676 32C42.4676 28.2597 39.4906 25.2275 35.8183 25.2275C32.146 25.2275 29.1689 28.2597 29.1689 32C29.1689 35.7404 32.146 38.7725 35.8183 38.7725Z" fill="#087EA4"/>
<path d="M35.8183 47.2382C54.18 47.2382 69.065 40.4158 69.065 32.0001C69.065 23.5843 54.18 16.762 35.8183 16.762C17.4566 16.762 2.57153 23.5843 2.57153 32.0001C2.57153 40.4158 17.4566 47.2382 35.8183 47.2382Z" stroke="#087EA4" stroke-width="3"/>
<path d="M22.8617 39.619C32.0425 55.8152 45.286 65.5336 52.4417 61.3257C59.5975 57.1178 57.9558 40.5771 48.775 24.3809C39.5942 8.18475 26.3507 -1.53366 19.195 2.67422C12.0392 6.88211 13.6809 23.4228 22.8617 39.619Z" stroke="#087EA4" stroke-width="3"/>
<path d="M22.8615 24.3808C13.6807 40.577 12.039 57.1177 19.1948 61.3256C26.3506 65.5335 39.594 55.8151 48.7748 39.6189C57.9557 23.4228 59.5973 6.88205 52.4416 2.67416C45.2858 -1.53372 32.0424 8.18469 22.8615 24.3808Z" stroke="#087EA4" stroke-width="3"/>
</g>
<defs>
<clipPath id="clip0_4_940">
<rect width="69.8182" height="64" fill="white" transform="translate(0.90918)"/>
</clipPath>
</defs>
</svg>
