<svg width="65" height="64" viewBox="0 0 65 64" fill="none" xmlns="http://www.w3.org/2000/svg">
<g clip-path="url(#clip0_4_963)">
<path d="M64.0908 49.59C61.7628 50.182 60.3228 49.616 59.0308 47.676L49.8428 34.964L48.5148 33.204L37.7848 47.718C36.5588 49.464 35.2728 50.224 32.9848 49.606L46.7248 31.162L33.9328 14.502C36.1328 14.074 37.6528 14.292 39.0028 16.262L48.5328 29.132L58.1328 16.332C59.3628 14.586 60.6848 13.922 62.8928 14.566L57.9328 21.142L51.2128 29.892C50.4128 30.892 50.5228 31.576 51.2588 32.542L64.0908 49.59ZM0.10682 30.854L1.23082 25.326C4.29082 14.386 16.8308 9.84002 25.4788 16.6C30.5328 20.576 31.7888 26.2 31.5388 32.5H3.05082C2.62282 43.84 10.7848 50.684 21.1908 47.192C24.8408 45.966 26.9908 43.108 28.0668 39.532C28.6128 37.74 29.5168 37.46 31.2008 37.972C30.3408 42.444 28.4008 46.18 24.3008 48.518C18.1748 52.018 9.43082 50.886 4.83082 46.022C2.09082 43.2 0.95882 39.624 0.45082 35.8C0.37082 35.168 0.21082 34.566 0.0908203 33.96C0.101487 32.9254 0.10682 31.8907 0.10682 30.856V30.854ZM3.10282 30.094H28.8468C28.6788 21.894 23.5728 16.07 16.5948 16.02C8.93482 15.96 3.43482 21.646 3.10282 30.094Z" fill="black"/>
</g>
<defs>
<clipPath id="clip0_4_963">
<rect width="64" height="64" fill="white" transform="translate(0.0908203)"/>
</clipPath>
</defs>
</svg>
