<svg width="65" height="64" viewBox="0 0 65 64" fill="none" xmlns="http://www.w3.org/2000/svg">
<path d="M53.5803 34.6079C51.5297 34.6186 49.7537 35.1106 48.2657 35.8452C47.7217 34.7586 47.1697 33.8026 47.0777 33.0919C46.9697 32.2626 46.8443 31.7666 46.975 30.7786C47.1057 29.7906 47.6777 28.3906 47.6697 28.2852C47.6617 28.1799 47.5417 27.6772 46.359 27.6679C45.1763 27.6599 44.1643 27.8959 44.0457 28.2079C43.927 28.5199 43.699 29.2226 43.5577 29.9559C43.351 31.0279 41.1963 34.8532 39.9737 36.8532C39.5737 36.0719 39.2337 35.3839 39.163 34.8399C39.055 34.0106 38.9297 33.5146 39.0603 32.5266C39.191 31.5386 39.763 30.1386 39.755 30.0332C39.747 29.9279 39.627 29.4252 38.4443 29.4159C37.2617 29.4079 36.2497 29.6439 36.131 29.9559C36.0123 30.2679 35.8843 30.9972 35.643 31.7039C35.4003 32.4092 32.5377 38.7892 31.787 40.4439C31.4043 41.2866 31.0723 41.9639 30.8377 42.4252L30.8363 42.4226C30.8363 42.4226 30.8217 42.4532 30.7977 42.5052C30.5963 42.8986 30.4777 43.1159 30.4777 43.1159C30.4777 43.1159 30.479 43.1186 30.4817 43.1239C30.3217 43.4132 30.151 43.6812 30.067 43.6812C30.0083 43.6812 29.8897 42.9119 30.0923 41.8559C30.519 39.6426 31.5417 36.1919 31.5323 36.0719C31.527 36.0106 31.723 35.4092 30.8643 35.0946C30.0297 34.7892 29.7323 35.2986 29.6563 35.2999C29.583 35.3012 29.5283 35.4799 29.5283 35.4799C29.5283 35.4799 30.4577 31.5986 27.755 31.5986C26.0643 31.5986 23.723 33.4479 22.5697 35.1239C21.8417 35.5212 20.283 36.3719 18.631 37.2799C17.9963 37.6292 17.3483 37.9852 16.7337 38.3239C16.6923 38.2772 16.6497 38.2319 16.607 38.1852C13.3283 34.6879 7.26966 32.2146 7.52566 27.5119C7.619 25.8026 8.21366 21.3012 19.1697 15.8426C28.1443 11.3706 35.3297 12.6012 36.571 15.3279C38.3443 19.2252 32.731 26.4666 23.411 27.5119C19.8603 27.9106 17.9897 26.5332 17.5243 26.0212C17.035 25.4812 16.9617 25.4572 16.779 25.5586C16.4817 25.7239 16.6697 26.1999 16.779 26.4839C17.0577 27.2079 18.199 28.4919 20.1457 29.1319C21.859 29.6946 26.0283 30.0026 31.0697 28.0519C36.7177 25.8679 41.127 19.7906 39.831 14.7119C38.5137 9.54658 29.9483 7.84791 21.8417 10.7279C17.011 12.4426 11.7883 15.1332 8.03233 18.6452C3.56699 22.8212 2.855 26.4572 3.14833 27.9759C4.191 33.3732 11.6297 36.8879 14.6083 39.4919C14.4617 39.5732 14.323 39.6492 14.1977 39.7186C12.7043 40.4572 7.03366 43.4252 5.615 46.5599C4.00566 50.1159 5.871 52.6679 7.10566 53.0119C10.931 54.0759 14.8563 52.1612 16.967 49.0146C19.0763 45.8692 18.819 41.7719 17.851 39.9026C17.839 39.8799 17.8257 39.8572 17.8137 39.8332C18.199 39.6052 18.5923 39.3732 18.9817 39.1439C19.7417 38.6972 20.4883 38.2812 21.135 37.9292C20.7723 38.9212 20.507 40.1119 20.3697 41.8306C20.207 43.8492 21.035 46.4586 22.1177 47.4852C22.595 47.9372 23.1683 47.9479 23.531 47.9479C24.791 47.9479 25.3657 46.8999 25.999 45.6599C26.775 44.1399 27.4643 42.3692 27.4643 42.3692C27.4643 42.3692 26.6003 47.1506 28.955 47.1506C29.8137 47.1506 30.6763 46.0372 31.0617 45.4706C31.063 45.4772 31.063 45.4799 31.063 45.4799C31.063 45.4799 31.0857 45.4426 31.1297 45.3692C31.219 45.2332 31.2697 45.1466 31.2697 45.1466C31.2697 45.1466 31.271 45.1372 31.2737 45.1212C31.619 44.5226 32.3843 43.1572 33.531 40.9052C35.0137 37.9959 36.435 34.3506 36.435 34.3506C36.435 34.3506 36.567 35.2412 37.0003 36.7159C37.255 37.5826 37.7963 38.5412 38.2243 39.4612C37.8803 39.9386 37.6697 40.2119 37.6697 40.2119C37.6697 40.2119 37.671 40.2172 37.675 40.2266C37.4003 40.5919 37.0923 40.9852 36.7697 41.3692C35.599 42.7626 34.2057 44.3546 34.019 44.8132C33.799 45.3546 33.851 45.7519 34.2763 46.0732C34.587 46.3066 35.139 46.3439 35.7163 46.3052C36.7683 46.2346 37.507 45.9732 37.8723 45.8146C38.4417 45.6132 39.1043 45.2972 39.7257 44.8399C40.8737 43.9959 41.5657 42.7892 41.499 41.1892C41.4617 40.3079 41.1817 39.4346 40.8257 38.6106C40.9297 38.4612 41.0337 38.3092 41.139 38.1572C42.9483 35.5119 44.3523 32.6052 44.3523 32.6052C44.3523 32.6052 44.4843 33.4959 44.9177 34.9706C45.1363 35.7159 45.5697 36.5306 45.959 37.3279C44.2577 38.7106 43.203 40.3172 42.8363 41.3706C42.159 43.3199 42.6897 44.2026 43.6843 44.4039C44.135 44.4946 44.7723 44.2879 45.251 44.0852C45.847 43.8879 46.563 43.5586 47.2323 43.0666C48.3803 42.2226 49.4843 41.0412 49.4177 39.4426C49.387 38.7146 49.1897 37.9919 48.9217 37.2986C50.3643 36.6972 52.231 36.3639 54.6097 36.6412C59.7123 37.2372 60.7123 40.4226 60.5217 41.7559C60.3297 43.0892 59.2603 43.8226 58.9017 44.0439C58.5443 44.2652 58.435 44.3426 58.4643 44.5066C58.5083 44.7452 58.6737 44.7372 58.979 44.6852C59.399 44.6146 61.6577 43.6012 61.755 41.1399C61.8763 38.0119 58.883 34.5799 53.5803 34.6079ZM14.251 47.8666C12.5603 49.7106 10.2003 50.4066 9.187 49.8199C8.09366 49.1866 8.52699 46.4719 10.6003 44.5146C11.8643 43.3226 13.4963 42.2239 14.579 41.5479C14.8257 41.3999 15.187 41.1826 15.627 40.9186C15.7003 40.8772 15.7417 40.8546 15.7417 40.8546L15.7403 40.8519C15.8257 40.8012 15.9123 40.7492 16.0017 40.6946C16.7577 43.4799 16.0257 45.9319 14.251 47.8666ZM26.5643 39.4972C25.9763 40.9319 24.7443 44.6039 23.9937 44.4066C23.3497 44.2372 22.9577 41.4466 23.8657 38.6999C24.3217 37.3172 25.2977 35.6652 25.871 35.0239C26.7937 33.9919 27.8097 33.6546 28.0563 34.0732C28.3697 34.6066 26.9337 38.5972 26.5643 39.4972ZM36.7363 44.3506C36.487 44.4812 36.2577 44.5626 36.1523 44.4999C36.0737 44.4532 36.255 44.2812 36.255 44.2812C36.255 44.2812 37.527 42.9119 38.0283 42.2892C38.3203 41.9266 38.6577 41.4959 39.0257 41.0159C39.0283 41.0639 39.0297 41.1119 39.0297 41.1586C39.027 42.7986 37.443 43.9052 36.7363 44.3506ZM44.5723 42.5639C44.3857 42.4319 44.4177 42.0039 45.0297 40.6692C45.2697 40.1452 45.819 39.2639 46.771 38.4212C46.8817 38.7679 46.9483 39.0999 46.947 39.4092C46.935 41.4732 45.463 42.2439 44.5723 42.5639Z" fill="#F06292"/>
</svg>
