<svg width="58" height="64" viewBox="0 0 58 64" fill="none" xmlns="http://www.w3.org/2000/svg">
<g clip-path="url(#clip0_4_958)">
<path d="M29.2358 64C28.3779 64 27.5771 63.7668 26.8335 63.3586L19.2262 58.7517C18.0823 58.1102 18.6542 57.877 18.9974 57.7603C20.5418 57.2355 20.8277 57.1189 22.4293 56.1859C22.6009 56.0692 22.8296 56.1275 23.0012 56.2442L28.8354 59.8014C29.0643 59.918 29.3502 59.918 29.5218 59.8014L52.3438 46.3307C52.5726 46.214 52.6869 45.9808 52.6869 45.6892V18.806C52.6869 18.5145 52.5726 18.2812 52.3438 18.1646L29.5218 4.75223C29.293 4.63561 29.007 4.63561 28.8354 4.75223L6.01348 18.1646C5.7847 18.2812 5.6703 18.5728 5.6703 18.806V45.6892C5.6703 45.9224 5.7847 46.214 6.01348 46.3307L12.2481 50.0045C15.6227 51.7539 17.739 49.7129 17.739 47.6719V21.1386C17.739 20.7888 18.0251 20.4389 18.4254 20.4389H21.3426C21.6857 20.4389 22.0289 20.7305 22.0289 21.1386V47.6719C22.0289 52.2788 19.5693 54.9613 15.2795 54.9613C13.964 54.9613 12.9345 54.9613 10.0173 53.5034L4.01156 50.0045C2.52442 49.1297 1.60925 47.4969 1.60925 45.7475V18.8644C1.60925 17.115 2.52442 15.4822 4.01156 14.6074L26.8335 1.13672C28.2635 0.320313 30.2082 0.320313 31.6382 1.13672L54.4601 14.6074C55.9472 15.4822 56.8624 17.115 56.8624 18.8644V45.7475C56.8624 47.4969 55.9472 49.1297 54.4601 50.0045L31.6382 63.4752C30.9518 63.7668 30.0938 64 29.2358 64Z" fill="#5FA04E"/>
<path d="M36.3283 45.5143C26.3186 45.5143 24.2595 40.8491 24.2595 36.8837C24.2595 36.5339 24.5455 36.184 24.9458 36.184H27.9202C28.2633 36.184 28.5494 36.4172 28.5494 36.7671C29.0069 39.8577 30.3225 41.374 36.3855 41.374C41.19 41.374 43.2492 40.266 43.2492 37.6418C43.2492 36.1256 42.6772 35.0176 35.1843 34.2595C28.9497 33.6181 25.0603 32.2186 25.0603 27.1451C25.0603 22.4216 28.9497 19.6226 35.4703 19.6226C42.7916 19.6226 46.395 22.1884 46.8526 27.7866C46.8526 27.9616 46.7955 28.1365 46.6811 28.3115C46.5667 28.4281 46.395 28.5447 46.2235 28.5447H43.192C42.906 28.5447 42.62 28.3115 42.5628 28.0198C41.8764 24.8126 40.1033 23.7629 35.4131 23.7629C30.1508 23.7629 29.5217 25.629 29.5217 27.0285C29.5217 28.7196 30.2653 29.2445 37.3578 30.1775C44.3931 31.1106 47.7106 32.4518 47.7106 37.4669C47.7106 42.5986 43.5352 45.5143 36.3283 45.5143Z" fill="#5FA04E"/>
</g>
<defs>
<clipPath id="clip0_4_958">
<rect width="56.32" height="64" fill="white" transform="translate(0.976318)"/>
</clipPath>
</defs>
</svg>
