<svg width="43" height="64" viewBox="0 0 43 64" fill="none" xmlns="http://www.w3.org/2000/svg">
<g clip-path="url(#clip0_4_996)">
<path d="M21.5757 31.9999C21.5757 29.1709 22.6995 26.4578 24.6999 24.4574C26.7003 22.4571 29.4134 21.3333 32.2424 21.3333C35.0713 21.3333 37.7844 22.4571 39.7848 24.4574C41.7852 26.4578 42.909 29.1709 42.909 31.9999C42.909 34.8289 41.7852 37.542 39.7848 39.5424C37.7844 41.5428 35.0713 42.6666 32.2424 42.6666C29.4134 42.6666 26.7003 41.5428 24.6999 39.5424C22.6995 37.542 21.5757 34.8289 21.5757 31.9999Z" fill="#1ABCFE"/>
<path d="M0.24231 53.3334C0.24231 50.5044 1.36612 47.7913 3.3665 45.7909C5.36689 43.7906 8.08 42.6667 10.909 42.6667H21.5756V53.3334C21.5756 56.1624 20.4518 58.8755 18.4514 60.8759C16.4511 62.8763 13.738 64.0001 10.909 64.0001C8.08 64.0001 5.36689 62.8763 3.3665 60.8759C1.36612 58.8755 0.24231 56.1624 0.24231 53.3334Z" fill="#0ACF83"/>
<path d="M21.5757 0V21.3333H32.2424C35.0713 21.3333 37.7844 20.2095 39.7848 18.2091C41.7852 16.2087 42.909 13.4956 42.909 10.6667C42.909 7.83769 41.7852 5.12458 39.7848 3.12419C37.7844 1.12381 35.0713 0 32.2424 0L21.5757 0Z" fill="#FF7262"/>
<path d="M0.24231 10.6667C0.24231 13.4956 1.36612 16.2087 3.3665 18.2091C5.36689 20.2095 8.08 21.3333 10.909 21.3333H21.5756V0H10.909C8.08 0 5.36689 1.12381 3.3665 3.12419C1.36612 5.12458 0.24231 7.83769 0.24231 10.6667Z" fill="#F24E1E"/>
<path d="M0.24231 31.9999C0.24231 34.8289 1.36612 37.542 3.3665 39.5424C5.36689 41.5428 8.08 42.6666 10.909 42.6666H21.5756V21.3333H10.909C8.08 21.3333 5.36689 22.4571 3.3665 24.4574C1.36612 26.4578 0.24231 29.1709 0.24231 31.9999Z" fill="#A259FF"/>
</g>
<defs>
<clipPath id="clip0_4_996">
<rect width="42.6667" height="64" fill="white" transform="translate(0.24231)"/>
</clipPath>
</defs>
</svg>
