<svg width="65" height="64" viewBox="0 0 65 64" fill="none" xmlns="http://www.w3.org/2000/svg">
<path d="M57.0545 29.4667L35.3211 7.73342C34.6545 7.06675 33.7211 6.66675 32.7878 6.66675C31.8545 6.66675 30.9211 7.06675 30.2545 7.73342L25.5878 12.4001L31.0545 17.8667C31.5878 17.6001 32.1211 17.4667 32.7878 17.4667C35.0545 17.4667 36.7878 19.2001 36.7878 21.4667C36.7878 22.1334 36.6545 22.6667 36.3878 23.2001L41.7211 28.5334C42.2545 28.2667 42.7878 28.1334 43.4545 28.1334C45.7211 28.1334 47.4545 29.8667 47.4545 32.1334C47.4545 34.4001 45.7211 36.1334 43.4545 36.1334C41.1878 36.1334 39.4545 34.4001 39.4545 32.1334C39.4545 31.4667 39.5878 30.9334 39.8545 30.4001L34.5211 25.0667C34.3878 25.0667 34.2545 25.2001 34.1211 25.2001V39.0667C35.7211 39.6001 36.7878 41.0667 36.7878 42.8001C36.7878 45.0667 35.0545 46.8001 32.7878 46.8001C30.5211 46.8001 28.7878 45.0667 28.7878 42.8001C28.7878 41.0667 29.8545 39.6001 31.4545 39.0667V25.0667C29.8545 24.5334 28.7878 23.0667 28.7878 21.3334C28.7878 20.6667 28.9211 20.1334 29.1878 19.6001L23.7211 14.1334L8.52113 29.4667C7.85447 30.1334 7.45447 31.0667 7.45447 32.0001C7.45447 32.9334 7.85447 33.8667 8.52113 34.5334L30.2545 56.2668C30.9211 56.9334 31.8545 57.3334 32.7878 57.3334C33.7211 57.3334 34.6545 56.9334 35.3211 56.2668L57.0545 34.5334C57.7211 33.8667 58.1211 32.9334 58.1211 32.0001C58.1211 31.0667 57.7211 30.1334 57.0545 29.4667Z" fill="#F4511E"/>
</svg>
