<svg width="106" height="64" viewBox="0 0 106 64" fill="none" xmlns="http://www.w3.org/2000/svg">
<g clip-path="url(#clip0_4_988)">
<mask id="mask0_4_988" style="mask-type:luminance" maskUnits="userSpaceOnUse" x="0" y="0" width="106" height="63">
<path d="M0.636353 0H105.364V62.8364H0.636353V0Z" fill="white"/>
</mask>
<g mask="url(#mask0_4_988)">
<path fill-rule="evenodd" clip-rule="evenodd" d="M53 0C39.0364 0 30.3091 6.98182 26.8182 20.9455C32.0545 13.9636 38.1636 11.3455 45.1454 13.0909C49.129 14.0858 51.976 16.9775 55.1275 20.1755C60.2611 25.3867 66.2034 31.4182 79.1818 31.4182C93.1454 31.4182 101.873 24.4364 105.364 10.4727C100.127 17.4545 94.0182 20.0727 87.0363 18.3273C83.0528 17.3324 80.2058 14.4407 77.0543 11.2427C71.9207 6.03151 65.9784 0 53 0ZM26.8182 31.4182C12.8545 31.4182 4.12726 38.4 0.636353 52.3636C5.87272 45.3818 11.9818 42.7636 18.9636 44.5091C22.9471 45.5059 25.7942 48.3956 28.9457 51.5937C34.0793 56.8048 40.0216 62.8364 53 62.8364C66.9636 62.8364 75.6909 55.8545 79.1818 41.8909C73.9454 48.8727 67.8363 51.4909 60.8545 49.7455C56.871 48.7505 54.024 45.8589 50.8725 42.6608C45.7389 37.4497 39.7966 31.4182 26.8182 31.4182Z" fill="#38BDF8"/>
</g>
</g>
<defs>
<clipPath id="clip0_4_988">
<rect width="104.727" height="64" fill="white" transform="translate(0.636353)"/>
</clipPath>
</defs>
</svg>
