<svg width="227" height="36" viewBox="0 0 227 36" fill="none" xmlns="http://www.w3.org/2000/svg">
<mask id="mask0_108_964" style="mask-type:luminance" maskUnits="userSpaceOnUse" x="0" y="0" width="36" height="36">
<path d="M0 0H36V36H0V0Z" fill="white"/>
</mask>
<g mask="url(#mask0_108_964)">
<path d="M35.443 12.0403C33.4917 4.50357 27.5892 0.00488281 19.653 0.00488281H0.00170898L0.389209 0.935827C2.05421 4.9402 5.82296 7.5298 9.98921 7.53111H15.3405L15.3842 7.5298C15.5867 7.51406 16.3392 7.46686 17.4655 7.46686C18.5505 7.46686 19.6542 7.51144 20.7455 7.59929L20.8517 7.60716C25.0267 7.952 30.7467 9.09667 34.2817 12.5871L34.328 12.6316C34.3455 12.65 34.3642 12.6683 34.3817 12.688L36.0642 14.445L35.443 12.0403ZM35.9817 20.7269L35.9767 20.799C34.9155 30.1898 28.593 36.0219 19.478 36.0219H6.94046V18.2435H7.57546C11.2455 18.2435 14.2317 21.376 14.2317 25.2256V28.3738H19.7842C22.5192 28.3738 24.8217 27.4323 26.4442 25.6491C28.0955 23.8357 28.9692 21.2134 28.9692 18.0678V17.959C28.9692 15.5228 28.458 13.4236 27.4505 11.7151L26.5105 10.122L28.198 10.7357C30.293 11.4988 31.9917 12.5136 33.248 13.7553C35.083 15.5687 36.003 17.9131 35.9817 20.7269Z" fill="white"/>
</g>
<path d="M56.224 24V12.015H60.797C62.191 12.015 63.3697 12.253 64.333 12.729C65.2963 13.205 66.0217 13.8907 66.509 14.786C67.0077 15.67 67.257 16.741 67.257 17.999C67.257 19.2457 67.0077 20.3167 66.509 21.212C66.0217 22.1073 65.2963 22.7987 64.333 23.286C63.3697 23.762 62.191 24 60.797 24H56.224ZM58.876 21.824H60.644C61.9813 21.824 62.973 21.5123 63.619 20.889C64.2763 20.2543 64.605 19.291 64.605 17.999C64.605 16.6957 64.2763 15.7323 63.619 15.109C62.973 14.4857 61.9813 14.174 60.644 14.174H58.876V21.824ZM68.9822 17.999C68.9822 16.7523 69.2146 15.67 69.6792 14.752C70.1552 13.8227 70.8352 13.103 71.7192 12.593C72.6032 12.083 73.6516 11.828 74.8642 11.828C76.0769 11.828 77.1252 12.083 78.0092 12.593C78.8932 13.103 79.5732 13.8227 80.0492 14.752C80.5366 15.67 80.7802 16.7467 80.7802 17.982C80.7802 19.24 80.5366 20.3337 80.0492 21.263C79.5732 22.181 78.8932 22.9007 78.0092 23.422C77.1252 23.932 76.0769 24.187 74.8642 24.187C73.6516 24.187 72.6032 23.932 71.7192 23.422C70.8466 22.9007 70.1722 22.1753 69.6962 21.246C69.2202 20.3167 68.9822 19.2343 68.9822 17.999ZM71.7532 17.999C71.7532 19.2343 72.0082 20.2033 72.5182 20.906C73.0396 21.5973 73.8216 21.943 74.8642 21.943C75.8842 21.943 76.6606 21.5973 77.1932 20.906C77.7259 20.2033 77.9922 19.2343 77.9922 17.999C77.9922 16.7523 77.7259 15.789 77.1932 15.109C76.6719 14.4177 75.8956 14.072 74.8642 14.072C73.8216 14.072 73.0396 14.4177 72.5182 15.109C72.0082 15.789 71.7532 16.7523 71.7532 17.999ZM82.8529 24V12.015H88.2929C89.6416 12.015 90.6842 12.338 91.4209 12.984C92.1576 13.6187 92.5259 14.5083 92.5259 15.653C92.5259 16.401 92.3559 17.047 92.0159 17.591C91.6872 18.1237 91.2112 18.5373 90.5879 18.832C89.9759 19.1153 89.2392 19.257 88.3779 19.257L88.5819 18.883H89.2789C89.7662 18.883 90.1969 19.0133 90.5709 19.274C90.9562 19.5347 91.2736 19.9143 91.5229 20.413L93.3079 24H90.3839L88.5309 20.141C88.3949 19.8123 88.1796 19.597 87.8849 19.495C87.6016 19.3817 87.2729 19.325 86.8989 19.325H85.5049V24H82.8529ZM85.5049 17.421H87.8339C88.5252 17.421 89.0522 17.2793 89.4149 16.996C89.7776 16.7127 89.9589 16.2933 89.9589 15.738C89.9589 15.1827 89.7776 14.769 89.4149 14.497C89.0522 14.2137 88.5252 14.072 87.8339 14.072H85.5049V17.421ZM94.889 24V12.015H97.541V24H94.889ZM98.5581 24L104.066 12.015H106.259L111.835 24H109.149L107.704 20.668L108.741 21.399H101.618L102.672 20.668L101.227 24H98.5581ZM105.154 14.803L102.961 20.005L102.502 19.359H107.857L107.466 20.005L105.222 14.803H105.154ZM112.869 24V12.015H114.841L121.352 20.294H120.893V12.015H123.358V24H121.386L114.892 15.721H115.334V24H112.869ZM130.599 24V12.015H132.928L137.093 21.365H136.549L140.714 12.015H143.026V24H140.612V15.857H141.292L137.569 24H136.039L132.299 15.857H133.013V24H130.599ZM144.08 24L149.588 12.015H151.781L157.357 24H154.671L153.226 20.668L154.263 21.399H147.14L148.194 20.668L146.749 24H144.08ZM150.676 14.803L148.483 20.005L148.024 19.359H153.379L152.988 20.005L150.744 14.803H150.676ZM158.39 24V12.015H163.83C165.179 12.015 166.221 12.338 166.958 12.984C167.695 13.6187 168.063 14.5083 168.063 15.653C168.063 16.401 167.893 17.047 167.553 17.591C167.224 18.1237 166.748 18.5373 166.125 18.832C165.513 19.1153 164.776 19.257 163.915 19.257L164.119 18.883H164.816C165.303 18.883 165.734 19.0133 166.108 19.274C166.493 19.5347 166.811 19.9143 167.06 20.413L168.845 24H165.921L164.068 20.141C163.932 19.8123 163.717 19.597 163.422 19.495C163.139 19.3817 162.81 19.325 162.436 19.325H161.042V24H158.39ZM161.042 17.421H163.371C164.062 17.421 164.589 17.2793 164.952 16.996C165.315 16.7127 165.496 16.2933 165.496 15.738C165.496 15.1827 165.315 14.769 164.952 14.497C164.589 14.2137 164.062 14.072 163.371 14.072H161.042V17.421ZM170.426 24V12.015H178.756V14.072H172.959V16.877H178.348V18.951H172.959V21.943H178.756V24H170.426ZM186.4 24.187C185.119 24.187 184.02 23.932 183.102 23.422C182.184 22.912 181.476 22.198 180.977 21.28C180.49 20.3507 180.246 19.257 180.246 17.999C180.246 16.741 180.49 15.653 180.977 14.735C181.476 13.817 182.184 13.103 183.102 12.593C184.02 12.083 185.119 11.828 186.4 11.828C187.227 11.828 187.981 11.947 188.661 12.185C189.341 12.4117 189.919 12.746 190.395 13.188L189.562 15.279C189.041 14.871 188.542 14.582 188.066 14.412C187.601 14.242 187.074 14.157 186.485 14.157C185.363 14.157 184.502 14.4913 183.901 15.16C183.312 15.8173 183.017 16.7637 183.017 17.999C183.017 19.2343 183.312 20.1863 183.901 20.855C184.502 21.5237 185.363 21.858 186.485 21.858C187.074 21.858 187.601 21.773 188.066 21.603C188.542 21.433 189.041 21.144 189.562 20.736L190.395 22.827C189.919 23.2577 189.341 23.592 188.661 23.83C187.981 24.068 187.227 24.187 186.4 24.187ZM192.241 24V12.015H194.893V16.826H200.384V12.015H203.053V24H200.384V19.019H194.893V24H192.241ZM204.078 24L209.586 12.015H211.779L217.355 24H214.669L213.224 20.668L214.261 21.399H207.138L208.192 20.668L206.747 24H204.078ZM210.674 14.803L208.481 20.005L208.022 19.359H213.377L212.986 20.005L210.742 14.803H210.674ZM218.388 24V12.015H221.04V21.773H226.446V24H218.388Z" fill="white"/>
</svg>
