<svg width="348" height="44" viewBox="0 0 348 44" fill="none" xmlns="http://www.w3.org/2000/svg">
<g clip-path="url(#clip0_4_1021)">
<path d="M35.3522 43.8927H3.08587C1.40759 43.8927 0 42.5529 0 40.8379V8.89636C0 7.23498 1.35345 5.84155 3.08587 5.84155H35.3522C37.0305 5.84155 38.4381 7.18138 38.4381 8.89636V40.8379C38.4381 42.4993 37.0305 43.8927 35.3522 43.8927Z" fill="#0000FF"/>
<path d="M15.267 24.4385L4.38519 24.5457C4.00623 24.5457 3.6814 24.8672 3.6814 25.2424V27.011C3.6814 27.3861 4.00623 27.7077 4.38519 27.7077H5.30554C5.68451 27.7077 6.00934 28.0292 6.00934 28.4044V34.0852C6.00934 34.4604 6.33417 34.782 6.71313 34.782H12.939C13.318 34.782 13.6428 34.4604 13.6428 34.0852V28.3508C13.6428 27.9756 13.9676 27.6541 14.3466 27.6541H15.3211C15.7001 27.6541 16.0249 27.3325 16.0249 26.9574V25.1352C15.9708 24.7064 15.6459 24.4385 15.267 24.4385Z" fill="#417CFC"/>
<path d="M19.5981 12.7017H17.4326C17.0536 12.7017 16.7288 13.0232 16.7288 13.3984V15.1669C16.7288 15.5421 16.4039 15.8637 16.025 15.8637H10.0698C9.6908 15.8637 9.36597 16.1852 9.36597 16.5604V22.938C9.36597 23.3131 9.6908 23.6347 10.0698 23.6347H16.025C16.4039 23.6347 16.7288 23.9562 16.7288 24.3314V26.5823C16.7288 26.9574 17.0536 27.279 17.4326 27.279H19.6522C20.0312 27.279 20.356 26.9574 20.356 26.5823L20.2477 13.452C20.2477 12.9696 19.977 12.7017 19.5981 12.7017Z" fill="#FFCD05"/>
<path d="M24.741 39.6053V36.1753C24.741 35.8002 24.4162 35.4786 24.0372 35.4786H23.4417C23.0627 35.4786 22.7379 35.1571 22.7379 34.7819V28.8867C22.7379 28.5115 22.4131 28.1899 22.0341 28.1899H15.1586C14.7796 28.1899 14.4548 28.5115 14.4548 28.8867V34.7819C14.4548 35.1571 14.1299 35.4786 13.751 35.4786H12.7224C12.3434 35.4786 12.0186 35.8002 12.0186 36.1753V39.6053C12.0186 39.9804 12.3434 40.302 12.7224 40.302L23.9289 40.1948C24.4162 40.302 24.741 39.9804 24.741 39.6053Z" fill="white"/>
<path d="M32.8619 22.6699L22.0342 22.7771C21.6553 22.7771 21.3304 23.0987 21.3846 23.4738V26.743C21.3846 27.1182 21.7094 27.4397 22.0884 27.4397H23.0087C23.3877 27.4397 23.7125 27.7613 23.7125 28.1364V33.7637C23.7125 34.1389 24.0374 34.4604 24.4163 34.4604H30.6422C31.0212 34.4604 31.346 34.1389 31.346 33.7637V28.0828C31.346 27.7077 31.6708 27.3861 32.0498 27.3861H33.0243C33.4033 27.3861 33.7281 27.0646 33.7281 26.6894V23.3666C33.5657 22.9379 33.2408 22.6699 32.8619 22.6699Z" fill="#FF5657"/>
<path d="M22.0884 21.866H25.6616C26.0405 21.866 26.3654 21.5445 26.3654 21.1693V20.151C26.3654 19.7759 26.6902 19.4543 27.0691 19.4543H33.1868C33.5657 19.4543 33.8906 19.1328 33.8906 18.7576V12.1657C33.8906 11.7905 33.5657 11.4689 33.1868 11.4689H27.015C26.636 11.4689 26.3112 11.1474 26.3112 10.7722V9.70037C26.3112 9.32522 25.9864 9.00366 25.6074 9.00366H21.9802C21.6012 9.00366 21.2764 9.32522 21.2764 9.70037L21.3846 21.1693C21.3846 21.5445 21.7095 21.866 22.0884 21.866Z" fill="#2DDFD5"/>
<path d="M52.8389 24.5456V5.73438H56.8451V24.5456H52.8389Z" fill="#0000FF"/>
<path d="M81.4779 5.73438V24.5456H77.7965L65.7778 11.3081V24.5456H61.8799V5.73438H65.7778L77.5799 18.7039V5.73438H81.4779Z" fill="#0000FF"/>
<path d="M104.649 21.4373C102.159 23.9026 99.1269 24.7065 94.5793 24.7065C92.0348 24.7065 89.3279 24.6529 86.5669 24.5457V5.73451C89.3821 5.62732 92.089 5.57373 94.5793 5.57373C99.1269 5.57373 102.159 6.37763 104.649 8.84291C106.219 10.3971 107.085 12.7552 107.085 15.1133C107.031 17.525 106.165 19.8831 104.649 21.4373ZM101.238 11.0402C99.5059 9.32525 97.2321 9.27166 94.4711 9.27166C93.1176 9.27166 91.9266 9.27166 90.519 9.27166V21.0086C91.9266 21.0622 93.1718 21.0622 94.4711 21.0622C97.2321 21.0622 99.5059 20.955 101.238 19.24C102.267 18.2217 102.862 16.7747 102.862 15.1133C102.862 13.5055 102.321 12.0585 101.238 11.0402Z" fill="#0000FF"/>
<path d="M127.549 5.73438V9.37871H115.044V13.1302H126.521V16.7746H115.044V20.9548H127.874V24.5456H112.391C111.47 24.5456 110.983 23.9561 110.983 23.2057V5.73438H127.549Z" fill="#0000FF"/>
<path d="M151.37 24.5457H148.23C147.039 24.5457 146.281 24.2777 145.794 23.6882L140.705 17.2034L134.696 24.5457H130.04L138.052 14.7917L130.689 5.78809H135.562L140.705 12.3265L146.065 5.78809H150.721L143.358 14.7381L151.37 24.5457Z" fill="#0000FF"/>
<path d="M178.439 5.73447V9.37881H165.934V13.1303H177.411V16.7747H165.934V20.9549H178.818V24.5457H163.335C162.469 24.5457 161.981 23.9561 161.981 23.2058V5.73447H178.439ZM170.535 0H176.003L171.401 4.01949H167.937L170.535 0Z" fill="#0000FF"/>
<path d="M201.123 21.4373C198.633 23.9026 195.601 24.7065 191.053 24.7065C188.509 24.7065 185.802 24.6529 183.041 24.5457V5.73451C185.856 5.62732 188.563 5.57373 191.053 5.57373C195.601 5.57373 198.633 6.37763 201.123 8.84291C202.693 10.3971 203.559 12.7552 203.559 15.1133C203.559 17.525 202.693 19.8831 201.123 21.4373ZM197.767 11.0402C196.034 9.32525 193.76 9.27166 190.999 9.27166C189.646 9.27166 188.455 9.27166 187.047 9.27166V21.0086C188.455 21.0622 189.7 21.0622 190.999 21.0622C193.76 21.0622 196.034 20.955 197.767 19.24C198.795 18.2217 199.391 16.7747 199.391 15.1133C199.337 13.5055 198.795 12.0585 197.767 11.0402Z" fill="#0000FF"/>
<path d="M207.187 16.3994V5.73438H211.193V16.0243C211.193 19.4006 212.925 21.33 216.499 21.33C220.126 21.33 221.858 19.4006 221.858 16.0243V5.73438H225.864V16.3458C225.864 22.0267 222.021 24.8671 216.499 24.8671C210.976 24.8671 207.187 22.0803 207.187 16.3994Z" fill="#0000FF"/>
<path d="M247.141 11.0937C245.408 9.48592 243.026 8.8964 240.969 8.8964C236.692 8.8964 233.66 11.3617 233.66 15.1132C233.66 18.8647 236.692 21.33 240.969 21.33C243.459 21.33 245.354 20.5797 247.357 19.0791L249.36 22.0267C247.195 23.9025 244.163 24.9208 240.969 24.9208C233.769 24.9208 229.492 20.5261 229.492 15.1668C229.492 9.80748 233.769 5.41284 240.969 5.41284C244.434 5.41284 247.249 6.48471 249.198 8.14609L247.141 11.0937Z" fill="#0000FF"/>
<path d="M274.426 24.5457H272.044C270.528 24.5457 270.041 24.4385 269.445 23.3131L268.309 21.1158H256.615L254.882 24.5457H250.551L260.513 5.57373H264.411L274.426 24.5457ZM266.468 17.5786L262.462 9.70041L258.455 17.5786H266.468Z" fill="#0000FF"/>
<path d="M290.668 9.37871H283.413V24.5456H279.407V9.37871H272.153V5.73438H290.668V9.37871Z" fill="#0000FF"/>
<path d="M293.537 24.5456V5.73438H297.543V24.5456H293.537Z" fill="#0000FF"/>
<path d="M312.918 24.9208C305.718 24.9208 301.441 20.5261 301.441 15.1668C301.441 9.80748 305.718 5.41284 312.918 5.41284C320.119 5.41284 324.396 9.80748 324.396 15.1668C324.396 20.5261 320.119 24.9208 312.918 24.9208ZM305.556 15.1668C305.556 18.9183 308.587 21.3836 312.864 21.3836C317.141 21.3836 320.173 18.9183 320.173 15.1668C320.173 11.4153 317.141 8.94999 312.864 8.94999C308.642 8.94999 305.556 11.3617 305.556 15.1668Z" fill="#0000FF"/>
<path d="M348 5.73438V24.5456H344.319L332.3 11.3081V24.5456H328.402V5.73438H332.3L344.102 18.7039V5.73438H348Z" fill="#0000FF"/>
<path d="M52.7305 43.7321V31.4592H63.2874V33.8173H55.3832V36.8721H62.6377V39.2302H55.3832V43.6785H52.7305V43.7321Z" fill="#0000FF"/>
<path d="M66.9687 30.0122C67.8349 30.0122 68.5387 30.6553 68.5387 31.4592C68.5387 32.2631 67.8349 32.9062 66.9687 32.9062C66.1025 32.9062 65.3987 32.2631 65.3987 31.4592C65.3987 30.6553 66.1025 30.0122 66.9687 30.0122ZM68.268 34.4604H65.7235V43.6785H68.268V34.4604Z" fill="#0000FF"/>
<path d="M71.354 30.1194H73.8985V43.6785H71.354V30.1194Z" fill="#0000FF"/>
<path d="M78.2294 30.0122C79.0956 30.0122 79.7994 30.6553 79.7994 31.4592C79.7994 32.2631 79.0956 32.9062 78.2294 32.9062C77.3632 32.9062 76.6594 32.2631 76.6594 31.4592C76.6594 30.6553 77.3632 30.0122 78.2294 30.0122ZM79.5287 34.4604H76.9842V43.6785H79.5287V34.4604Z" fill="#0000FF"/>
<path d="M91.1145 34.4605H93.6048V43.6785H91.1145L91.0604 42.4994H91.0062C89.9235 43.3569 88.5159 43.8929 87.2166 43.8929C83.86 43.8929 82.0193 41.8027 82.0193 39.0695C82.0193 36.3898 84.1848 34.2461 87.4331 34.2461C88.6783 34.2461 90.14 34.7284 91.0604 35.6395H91.1145V34.4605ZM87.7579 36.2826C85.7548 36.2826 84.6179 37.5153 84.6179 39.1231C84.6179 40.7309 85.809 41.9635 87.7579 41.9635C89.5986 41.9635 91.0604 40.7845 91.0604 39.1231C91.0604 37.4617 89.5445 36.2826 87.7579 36.2826Z" fill="#0000FF"/>
<path d="M96.5823 30.1194H99.1268V43.6785H96.5823V30.1194Z" fill="#0000FF"/>
<path d="M112.499 39.2839C112.499 39.4982 112.499 39.8198 112.445 40.0342H104.162C104.595 41.2668 105.84 41.9635 107.464 41.9635C108.547 41.9635 109.738 41.5884 110.767 41.0524L111.795 42.8746C110.334 43.5713 108.98 43.8929 107.356 43.8929C103.891 43.8929 101.509 42.0707 101.509 39.0695C101.509 36.3362 103.891 34.2461 107.248 34.2461C109.846 34.2461 112.499 35.9075 112.499 39.2839ZM109.846 38.3192C109.684 36.9793 108.493 36.1754 107.085 36.1754C105.515 36.1754 104.432 37.0329 104.162 38.3192H109.846Z" fill="#0000FF"/>
<path d="M128.578 42.553C127.549 43.4105 126.088 43.9464 124.788 43.9464C121.432 43.9464 119.591 41.8563 119.591 39.123C119.591 36.4434 121.757 34.2997 125.005 34.2997C126.25 34.2997 127.712 34.782 128.632 35.6931V30.1194H131.177V43.6785H128.686L128.578 42.553ZM125.33 36.2826C123.327 36.2826 122.136 37.5152 122.136 39.123C122.136 40.7308 123.327 41.9635 125.33 41.9635C127.116 41.9635 128.578 40.7844 128.578 39.123C128.578 37.4616 127.116 36.2826 125.33 36.2826Z" fill="#0000FF"/>
<path d="M144.603 39.2839C144.603 39.4982 144.603 39.8198 144.549 40.0342H136.266C136.699 41.2668 137.944 41.9635 139.568 41.9635C140.651 41.9635 141.842 41.5884 142.87 41.0524L143.899 42.8746C142.437 43.5713 141.084 43.8929 139.46 43.8929C135.995 43.8929 133.613 42.0707 133.613 39.0695C133.613 36.3362 135.995 34.2461 139.351 34.2461C141.896 34.2461 144.603 35.9075 144.603 39.2839ZM141.896 38.3192C141.734 36.9793 140.542 36.1754 139.135 36.1754C137.565 36.1754 136.482 37.0329 136.211 38.3192H141.896Z" fill="#0000FF"/>
<path d="M164.147 41.6955C162.523 43.3033 160.574 43.7857 157.596 43.7857C155.972 43.7857 154.185 43.7321 152.345 43.6785V31.4592C154.185 31.4056 155.918 31.3521 157.596 31.3521C160.574 31.3521 162.523 31.888 164.147 33.4422C165.175 34.4605 165.717 35.9611 165.717 37.5153C165.717 39.1231 165.175 40.6773 164.147 41.6955ZM161.981 34.9428C160.844 33.8173 159.383 33.7637 157.596 33.7637C156.73 33.7637 155.918 33.7637 154.997 33.7637V41.374C155.918 41.374 156.73 41.4276 157.596 41.4276C159.383 41.4276 160.899 41.374 161.981 40.2485C162.631 39.6054 163.01 38.6407 163.01 37.5689C163.01 36.497 162.631 35.5859 161.981 34.9428Z" fill="#0000FF"/>
<path d="M175.191 43.9463C170.535 43.9463 167.72 41.1059 167.72 37.5687C167.72 34.0316 170.535 31.1912 175.191 31.1912C179.847 31.1912 182.662 34.0316 182.662 37.5687C182.662 41.1059 179.901 43.9463 175.191 43.9463ZM170.427 37.5687C170.427 40.034 172.43 41.5882 175.191 41.5882C177.952 41.5882 179.955 39.9804 179.955 37.5687C179.955 35.1035 177.952 33.5493 175.191 33.5493C172.43 33.5493 170.427 35.1571 170.427 37.5687Z" fill="#0000FF"/>
<path d="M196.142 34.9964C195.005 33.9781 193.435 33.603 192.136 33.603C189.375 33.603 187.372 35.2108 187.372 37.6225C187.372 40.0877 189.375 41.6419 192.136 41.6419C193.76 41.6419 195.005 41.1596 196.305 40.1949L197.604 42.1243C196.196 43.3033 194.193 44.0001 192.136 44.0001C187.48 44.0001 184.665 41.1596 184.665 37.6225C184.665 34.0853 187.48 31.2449 192.136 31.2449C194.41 31.2449 196.196 31.9416 197.496 33.0134L196.142 34.9964Z" fill="#0000FF"/>
<path d="M213.954 43.732H212.384C211.409 43.732 211.085 43.6784 210.706 42.9281L209.948 41.481H202.368L201.231 43.6784H198.416L204.913 31.2983H207.457L213.954 43.732ZM208.811 39.1765L206.212 34.0316L203.614 39.1765H208.811Z" fill="#0000FF"/>
<path d="M218.339 43.7321H215.74V31.4592C217.04 31.4056 218.718 31.3521 220.18 31.3521C224.727 31.3521 227.164 32.5311 227.164 35.6395C227.164 39.0695 224.294 40.0341 220.342 40.0341C219.801 40.0341 218.935 40.0341 218.285 40.0341L218.339 43.7321ZM220.18 37.7296C221.75 37.7296 223.157 37.7296 223.915 36.9793C224.24 36.6042 224.403 36.229 224.403 35.6395C224.403 35.2108 224.24 34.782 223.969 34.514C223.266 33.8173 222.129 33.7102 220.126 33.7102C219.584 33.7102 218.88 33.7102 218.231 33.7102V37.6225C218.935 37.676 219.638 37.7296 220.18 37.7296Z" fill="#0000FF"/>
<path d="M236.367 43.9463C231.711 43.9463 228.896 41.1059 228.896 37.5687C228.896 34.0316 231.711 31.1912 236.367 31.1912C241.023 31.1912 243.838 34.0316 243.838 37.5687C243.838 41.1059 241.077 43.9463 236.367 43.9463ZM231.603 37.5687C231.603 40.034 233.606 41.5882 236.367 41.5882C239.128 41.5882 241.131 39.9804 241.131 37.5687C241.131 35.1035 239.128 33.5493 236.367 33.5493C233.606 33.5493 231.603 35.1571 231.603 37.5687Z" fill="#0000FF"/>
<path d="M251.472 33.4422C249.847 33.4422 248.656 33.8709 248.656 34.782C248.656 37.0329 257.048 35.8003 257.048 40.1413C257.048 42.553 254.449 44.0001 251.309 44.0001C249.468 44.0001 246.924 43.3569 245.246 42.2315L246.599 40.2485C247.79 41.2132 249.793 41.8027 251.526 41.8027C252.771 41.8027 254.287 41.4276 254.287 40.4093C254.287 37.944 245.895 39.4446 245.895 35.1572C245.895 32.9063 248.331 31.2449 251.472 31.2449C253.204 31.2449 255.478 31.8344 256.831 32.6919L255.478 34.6748C254.503 33.8709 252.717 33.4422 251.472 33.4422Z" fill="#0000FF"/>
<path d="M270.691 33.8173H265.981V43.6785H263.382V33.8173H258.672V31.4592H270.691V33.8173Z" fill="#0000FF"/>
<path d="M283.359 31.4592V33.8173H275.238V36.2826H282.709V38.6407H275.238V41.374H283.63V43.7321H273.56C272.964 43.7321 272.64 43.3569 272.64 42.8746V31.4592H283.359Z" fill="#0000FF"/>
</g>
<defs>
<clipPath id="clip0_4_1021">
<rect width="348" height="44" fill="white"/>
</clipPath>
</defs>
</svg>
