<svg width="65" height="64" viewBox="0 0 65 64" fill="none" xmlns="http://www.w3.org/2000/svg">
<g clip-path="url(#clip0_5_2301)">
<path fill-rule="evenodd" clip-rule="evenodd" d="M59.4969 49.8526C56.0161 49.7557 53.3157 50.1124 51.0524 51.0645C50.4007 51.3263 49.3549 51.3263 49.269 52.1465C49.6173 52.4907 49.6592 53.054 49.9646 53.531C50.4865 54.3968 51.4016 55.5631 52.2279 56.1681L55.0132 58.1585C56.7107 59.1959 58.6257 59.8019 60.2793 60.8402C61.2373 61.4462 62.1944 62.2247 63.1524 62.8743C63.6402 63.2204 63.9358 63.7837 64.5455 63.999V63.8681C64.2411 63.4803 64.1533 62.9179 63.8499 62.4836L62.5427 61.23C61.2812 59.543 59.7135 58.0713 58.016 56.8613C56.6229 55.9092 53.5771 54.612 53.0113 53.0123L52.9255 52.9153C53.8815 52.8184 55.0132 52.482 55.9283 52.2221C57.4092 51.8343 58.7574 51.9196 60.2793 51.5309L62.37 50.9249V50.5371C61.5866 49.7586 61.0208 48.7202 60.1945 47.9853C57.975 46.0821 55.5361 44.2216 53.0113 42.6646C51.6621 41.7997 49.9207 41.2364 48.4847 40.5025C47.9608 40.2427 47.0915 40.1128 46.7872 39.6804C46.0018 38.7302 45.5677 37.4747 45.0019 36.3491L41.4332 28.8226C40.6498 27.1357 40.1699 25.4487 39.2138 23.8916C34.7301 16.5378 29.8541 12.0828 22.3676 7.71318C20.7579 6.80473 18.8429 6.41401 16.8068 5.93895L13.5426 5.76443C12.845 5.46194 12.1495 4.63978 11.5397 4.25003C9.05884 2.69298 2.66007 -0.680971 0.830869 3.76527C-0.344696 6.57689 2.57226 9.34489 3.56247 10.773C4.3039 11.7677 5.25996 12.8924 5.78385 14.017C6.07652 14.7519 6.17408 15.5314 6.47943 16.31C7.17502 18.2131 7.82865 20.3335 8.74276 22.1077C9.23055 23.0162 9.74273 23.9692 10.3525 24.7904C10.7007 25.2752 11.3105 25.4826 11.4402 26.2612C10.8305 27.1269 10.7885 28.4232 10.4403 29.5062C8.87251 34.3945 9.48224 40.4502 11.7017 44.049C12.3992 45.1301 14.043 47.5102 16.2732 46.6008C18.2322 45.8223 17.7951 43.3568 18.3609 41.1938C18.4926 40.6751 18.4048 40.329 18.6653 39.9819V40.0788L20.4506 43.669C21.7998 45.7884 24.151 47.995 26.1089 49.4667C27.1528 50.2453 27.9801 51.5871 29.2854 52.0622V51.9313H29.1995C28.9381 51.5435 28.5459 51.3689 28.1976 51.0665C27.4142 50.2879 26.544 49.3359 25.9343 48.471C24.1071 46.0492 22.4974 43.3665 21.0603 40.5985C20.3628 39.2576 19.7531 37.7869 19.1892 36.446C18.9258 35.9264 18.9258 35.1469 18.4917 34.889C17.838 35.8391 16.882 36.6632 16.401 37.8305C15.5737 39.6901 15.4879 41.983 15.1835 44.3622C15.0079 44.4058 15.0859 44.3622 15.0079 44.4591C13.6167 44.114 13.1367 42.6849 12.6148 41.4749C11.3095 38.4035 11.091 33.4725 12.2226 29.925C12.527 29.0166 13.8343 26.1613 13.3123 25.2965C13.0489 24.4743 12.1807 23.9993 11.7007 23.3497C11.1349 22.5275 10.5271 21.4901 10.1349 20.5817C9.09104 18.1579 8.56911 15.4771 7.43647 13.0543C6.91258 11.9296 5.99945 10.7614 5.25899 9.72397C4.43171 8.55569 3.51955 7.73354 2.86591 6.35003C2.64836 5.86526 2.34398 5.09546 2.69226 4.5758C2.77811 4.22968 2.95371 4.09103 3.30004 4.01347C3.86587 3.52871 5.47752 4.14339 6.04335 4.40128C7.65304 5.05086 9.00226 5.65585 10.3515 6.56332C10.9612 6.99573 11.6148 7.81789 12.3982 8.03506H13.3133C14.7064 8.33755 16.2722 8.13201 17.5766 8.51982C19.8838 9.25666 21.9725 10.3367 23.8456 11.506C29.5468 15.0961 34.2491 20.2007 37.4256 26.3009C37.9475 27.2956 38.165 28.2041 38.645 29.2425C39.5601 31.3628 40.6918 33.5248 41.6039 35.6025C42.519 37.6356 43.3892 39.7133 44.6946 41.4003C45.3482 42.3087 47.9588 42.7838 49.1334 43.2598C50.0046 43.6477 51.3528 43.9967 52.1382 44.4717C53.6171 45.3802 55.0971 46.4186 56.4892 47.4133C57.1848 47.931 59.3623 49.013 59.492 49.8759L59.4969 49.8526ZM15.1084 12.2622C14.507 12.2569 13.9075 12.3296 13.325 12.4784V12.5753H13.4109C13.7592 13.2676 14.3689 13.7436 14.804 14.3496L15.8059 16.4263L15.8918 16.3293C16.5015 15.8969 16.8068 15.2047 16.8068 14.1673C16.5454 13.8648 16.5025 13.5614 16.2849 13.2589C16.0235 12.8265 15.4576 12.6093 15.1084 12.2641V12.2622Z" fill="#00678C"/>
</g>
<defs>
<clipPath id="clip0_5_2301">
<rect width="64" height="64" fill="white" transform="translate(0.54541)"/>
</clipPath>
</defs>
</svg>
