<svg width="65" height="64" viewBox="0 0 65 64" fill="none" xmlns="http://www.w3.org/2000/svg">
<g clip-path="url(#clip0_5_2279)">
<mask id="mask0_5_2279" style="mask-type:luminance" maskUnits="userSpaceOnUse" x="0" y="14" width="65" height="35">
<path d="M0.181885 31.3971C0.181885 40.5666 14.509 48.0002 32.1817 48.0002C49.8544 48.0002 64.1815 40.5666 64.1815 31.3971C64.1815 22.2276 49.8544 14.794 32.1817 14.794C14.509 14.794 0.181885 22.2277 0.181885 31.3971Z" fill="white"/>
</mask>
<g mask="url(#mask0_5_2279)">
<path d="M0.181885 31.3971C0.181885 40.5666 14.509 48.0002 32.1817 48.0002C49.8544 48.0002 64.1815 40.5666 64.1815 31.3971C64.1815 22.2276 49.8544 14.794 32.1817 14.794C14.509 14.794 0.181885 22.2277 0.181885 31.3971Z" fill="url(#paint0_radial_5_2279)"/>
</g>
<mask id="mask1_5_2279" style="mask-type:luminance" maskUnits="userSpaceOnUse" x="-2" y="12" width="68" height="38">
<path d="M-1.15137 12.9034H65.5149V49.8906H-1.15137V12.9034Z" fill="white"/>
</mask>
<g mask="url(#mask1_5_2279)">
<path d="M32.1817 46.7673C49.1642 46.7673 62.9315 39.8859 62.9315 31.3971C62.9315 22.9083 49.1642 16.0269 32.1817 16.0269C15.1992 16.0269 1.43188 22.9083 1.43188 31.3971C1.43188 39.8859 15.1992 46.7673 32.1817 46.7673Z" fill="#777BB3"/>
</g>
<mask id="mask2_5_2279" style="mask-type:luminance" maskUnits="userSpaceOnUse" x="-2" y="12" width="68" height="38">
<path d="M-1.15137 12.9034H65.5149V49.8906H-1.15137V12.9034Z" fill="white"/>
</mask>
<g mask="url(#mask2_5_2279)">
<path d="M17.5678 33.3027C18.9642 33.3027 20.0066 33.0487 20.6661 32.5481C21.3187 32.0526 21.7694 31.1939 22.0056 29.9963C22.2258 28.8769 22.1419 28.0952 21.7563 27.6734C21.362 27.2426 20.5094 27.0241 19.2224 27.0241H16.9909L15.7537 33.3028H17.5676L17.5678 33.3027ZM10.2687 41.0369C10.1651 41.0369 10.0668 40.9912 10.0009 40.9122C9.96835 40.8733 9.94493 40.8277 9.93232 40.7787C9.91971 40.7298 9.91824 40.6787 9.928 40.6291L13.2067 23.9906C13.2221 23.9126 13.2645 23.8423 13.3267 23.7917C13.3889 23.7412 13.467 23.7135 13.5475 23.7135H20.6139C22.8347 23.7135 24.4877 24.3071 25.5267 25.4815C26.5713 26.6607 26.8939 28.3094 26.4854 30.3811C26.3192 31.2252 26.0333 32.009 25.6359 32.7111C25.2377 33.4138 24.7118 34.0639 24.0722 34.6438C23.3065 35.3507 22.4398 35.8632 21.4986 36.1648C20.5724 36.4625 19.3829 36.6135 17.963 36.6135H15.1017L14.2846 40.7599C14.2692 40.838 14.2268 40.9083 14.1646 40.9588C14.1025 41.0094 14.0244 41.0371 13.9438 41.0371H10.2687V41.0369Z" fill="black"/>
<path d="M17.2773 27.3664H19.2227C20.7759 27.3664 21.3156 27.7026 21.4989 27.9029C21.8031 28.2356 21.8605 28.937 21.665 29.9312C21.4454 31.0442 21.0382 31.8334 20.4546 32.2766C19.8572 32.7302 18.8859 32.9601 17.5681 32.9601H16.175L17.2773 27.3664ZM20.6141 23.3709H13.5477C13.3866 23.3709 13.2304 23.4262 13.1061 23.5273C12.9817 23.6284 12.8969 23.7691 12.8661 23.9251L9.58745 40.5639C9.56792 40.663 9.57087 40.7652 9.59609 40.8631C9.6213 40.961 9.66816 41.0522 9.7333 41.1301C9.79844 41.2081 9.88025 41.2708 9.97287 41.3139C10.0655 41.357 10.1666 41.3794 10.269 41.3794H13.9438C14.105 41.3794 14.2611 41.3241 14.3855 41.223C14.5099 41.1219 14.5947 40.9812 14.6255 40.8252L15.388 36.9558H17.9632C19.4194 36.9558 20.6454 36.7991 21.6067 36.4903C22.5951 36.1736 23.5048 35.6364 24.3097 34.894C24.9754 34.2898 25.525 33.6117 25.9393 32.8783C26.3537 32.1448 26.6534 31.3264 26.8268 30.4465C27.2568 28.2656 26.9075 26.5192 25.7886 25.2562C24.6808 24.0052 22.9398 23.371 20.6143 23.371M15.3328 33.6452H17.5681C19.0495 33.6452 20.1532 33.3701 20.8782 32.8194C21.6032 32.2687 22.0926 31.3496 22.3467 30.0617C22.5898 28.8251 22.4791 27.9525 22.0146 27.444C21.55 26.9356 20.6187 26.6814 19.2229 26.6814H16.7051L15.3329 33.6451M20.6145 24.0558C22.7403 24.0558 24.2911 24.606 25.2658 25.7065C26.2406 26.807 26.534 28.3434 26.1451 30.3157C25.985 31.1281 25.7143 31.8709 25.3332 32.544C24.952 33.2171 24.4533 33.8332 23.8376 34.3916C23.1038 35.0689 22.2886 35.5514 21.3917 35.8391C20.4947 36.1273 19.3523 36.2708 17.9634 36.2708H14.8158L13.9442 40.6944H10.2695L13.5477 24.0558H20.6142" fill="white"/>
<path d="M34.9114 36.6132C34.8077 36.6132 34.7095 36.5675 34.6436 36.4885C34.5778 36.4095 34.5508 36.3059 34.5707 36.2054L36.0209 28.8433C36.1589 28.1432 36.1249 27.6407 35.9252 27.4284C35.803 27.2986 35.4359 27.0809 34.3503 27.0809H31.7228L29.8993 36.3359C29.884 36.4139 29.8415 36.4843 29.7793 36.5348C29.7172 36.5854 29.6391 36.6131 29.5585 36.6131H25.9127C25.8614 36.6131 25.8109 36.6019 25.7646 36.5803C25.7182 36.5588 25.6773 36.5274 25.6447 36.4884C25.6122 36.4495 25.5887 36.4039 25.5761 36.3549C25.5635 36.306 25.562 36.2549 25.5718 36.2053L28.8505 19.5668C28.8659 19.4887 28.9083 19.4184 28.9705 19.3679C29.0327 19.3173 29.1108 19.2897 29.1913 19.2897H32.8371C32.8884 19.2897 32.9389 19.3009 32.9852 19.3224C33.0316 19.344 33.0725 19.3753 33.1051 19.4143C33.1376 19.4533 33.1611 19.4989 33.1737 19.5478C33.1863 19.5968 33.1878 19.6479 33.178 19.6975L32.3868 23.7133H35.2134C37.3667 23.7133 38.8268 24.0878 39.6775 24.8581C40.5455 25.644 40.8149 26.9004 40.4815 28.5933L38.9561 36.3361C38.9407 36.4141 38.8983 36.4845 38.8361 36.5351C38.7739 36.5856 38.6958 36.6133 38.6152 36.6133H34.9116L34.9114 36.6132Z" fill="black"/>
<path d="M32.837 18.9473H29.1911C29.03 18.9472 28.8738 19.0025 28.7494 19.1037C28.625 19.2048 28.5402 19.3454 28.5094 19.5015L25.2308 36.14C25.2112 36.2392 25.2142 36.3414 25.2394 36.4393C25.2646 36.5372 25.3115 36.6284 25.3766 36.7063C25.4418 36.7843 25.5236 36.847 25.6163 36.8901C25.7089 36.9332 25.81 36.9556 25.9125 36.9556H29.5583C29.7195 36.9556 29.8756 36.9003 30 36.7992C30.1244 36.698 30.2092 36.5574 30.24 36.4013L32.0088 27.4234H34.3503C35.4339 27.4234 35.6614 27.6517 35.6705 27.6615C35.7362 27.7311 35.8227 28.0542 35.68 28.778L34.2298 36.14C34.2102 36.2392 34.2132 36.3414 34.2384 36.4393C34.2636 36.5372 34.3105 36.6284 34.3757 36.7063C34.4408 36.7843 34.5226 36.847 34.6153 36.8901C34.7079 36.9332 34.8091 36.9556 34.9115 36.9556H38.6152C38.7763 36.9556 38.9325 36.9003 39.0569 36.7992C39.1813 36.698 39.2661 36.5574 39.2969 36.4013L40.8223 28.6586C41.1803 26.8412 40.8741 25.4777 39.9126 24.606C38.995 23.7749 37.458 23.3708 35.2136 23.3708H32.808L33.519 19.7628C33.5386 19.6636 33.5356 19.5614 33.5104 19.4635C33.4852 19.3656 33.4383 19.2744 33.3732 19.1964C33.308 19.1184 33.2262 19.0557 33.1335 19.0126C33.0409 18.9695 32.9397 18.9471 32.8373 18.9471M32.8373 19.6321L31.9658 24.0557H35.2137C37.2573 24.0557 38.6669 24.4075 39.4428 25.1103C40.2187 25.8131 40.4509 26.9528 40.141 28.528L38.6155 36.2706H34.9118L36.3621 28.9088C36.5271 28.0713 36.4664 27.5001 36.1799 27.1955C35.8933 26.8909 35.2834 26.7384 34.3506 26.7384H31.4365L29.5585 36.2706H25.9127L29.1914 19.6321H32.8372" fill="white"/>
<path d="M46.25 33.3027C47.6464 33.3027 48.6889 33.0487 49.3484 32.5481C50.0009 32.0526 50.4516 31.1942 50.6879 29.9963C50.9082 28.8769 50.8243 28.0952 50.4385 27.6734C50.0442 27.2426 49.1916 27.0241 47.9046 27.0241H45.6732L44.4359 33.3028H46.2499L46.25 33.3027ZM38.9512 41.0369C38.8476 41.0369 38.7492 40.9912 38.6834 40.9122C38.6508 40.8733 38.6274 40.8277 38.6147 40.7787C38.6021 40.7298 38.6006 40.6787 38.6103 40.6291L41.889 23.9906C41.9044 23.9125 41.9469 23.8422 42.0091 23.7917C42.0713 23.7411 42.1494 23.7135 42.23 23.7135H49.2963C51.5173 23.7135 53.1701 24.3071 54.2092 25.4815C55.2538 26.6607 55.5761 28.3092 55.1679 30.3811C55.0014 31.2252 54.7157 32.009 54.3181 32.7111C53.92 33.4138 53.3941 34.0639 52.7545 34.6438C51.9887 35.3507 51.1221 35.8632 50.1809 36.1648C49.2546 36.4625 48.0651 36.6135 46.6453 36.6135H43.7836L42.9668 40.7599C42.9514 40.838 42.909 40.9083 42.8468 40.9589C42.7846 41.0095 42.7065 41.0371 42.6258 41.0371H38.9511L38.9512 41.0369Z" fill="black"/>
<path d="M45.9596 27.3664H47.9049C49.4582 27.3664 49.9979 27.7026 50.1812 27.9029C50.4856 28.2356 50.5429 28.937 50.3473 29.9311C50.1276 31.0441 49.7203 31.8334 49.1369 32.2766C48.5394 32.7302 47.5681 32.9601 46.2503 32.9601H44.8576L45.9596 27.3664ZM49.2964 23.3709H42.23C42.0688 23.3709 41.9127 23.4262 41.7883 23.5273C41.664 23.6284 41.5791 23.7691 41.5484 23.9251L38.2698 40.5639C38.2503 40.663 38.2532 40.7652 38.2785 40.8631C38.3037 40.961 38.3505 41.0522 38.4157 41.1301C38.4808 41.2081 38.5626 41.2708 38.6552 41.3139C38.7479 41.357 38.849 41.3794 38.9514 41.3794H42.6262C42.7873 41.3794 42.9435 41.3241 43.0679 41.223C43.1923 41.1219 43.2771 40.9812 43.3079 40.8252L44.0702 36.9558H46.6455C48.1017 36.9558 49.3276 36.7991 50.289 36.4903C51.2774 36.1736 52.1871 35.6364 52.9922 34.8937C53.6579 34.2898 54.2061 33.6117 54.6216 32.8783C55.0371 32.1448 55.3357 31.3264 55.5091 30.4465C55.939 28.2655 55.5897 26.5191 54.4709 25.2561C53.363 24.0052 51.6222 23.371 49.2966 23.371M44.0152 33.6452H46.2503C47.7318 33.6452 48.8355 33.3701 49.5605 32.8194C50.2855 32.2687 50.7748 31.3496 51.029 30.0617C51.2723 28.8251 51.1615 27.9525 50.6968 27.444C50.2321 26.9356 49.301 26.6814 47.9052 26.6814H45.3874L44.0153 33.6451M49.2967 24.0558C51.4225 24.0558 52.9733 24.606 53.9481 25.7065C54.9228 26.807 55.2162 28.3434 54.8274 30.3157C54.6673 31.1281 54.3966 31.8709 54.0154 32.544C53.6343 33.2171 53.1356 33.8332 52.5198 34.3916C51.7861 35.0689 50.9709 35.5514 50.0739 35.8391C49.1769 36.1273 48.0346 36.2708 46.6457 36.2708H43.498L42.6265 40.6944H38.9518L42.2304 24.0559H49.2968" fill="white"/>
</g>
</g>
<defs>
<radialGradient id="paint0_radial_5_2279" cx="0" cy="0" r="1" gradientUnits="userSpaceOnUse" gradientTransform="translate(19.3947 20.6312) scale(42.0203 41.446)">
<stop stop-color="#AEB2D5"/>
<stop offset="0.3" stop-color="#AEB2D5"/>
<stop offset="0.75" stop-color="#484C89"/>
<stop offset="1" stop-color="#484C89"/>
</radialGradient>
<clipPath id="clip0_5_2279">
<rect width="64" height="64" fill="white" transform="translate(0.181885)"/>
</clipPath>
</defs>
</svg>
