<svg width="65" height="64" viewBox="0 0 65 64" fill="none" xmlns="http://www.w3.org/2000/svg">
<path d="M40.9075 29.8772L26.8791 34.0623L14.6746 38.9836L11.2602 39.8072C10.3907 40.5629 9.47888 41.3283 8.49274 42.1033C7.4112 42.9557 6.40388 43.7309 5.62971 44.2926C4.77089 44.9127 3.49846 46.0752 2.8517 46.8113C1.88673 47.9157 1.12331 49.0879 0.794581 49.989C0.211345 51.6165 0.497778 53.2634 1.62171 54.7845C3.06377 56.7219 5.93736 58.6982 9.28794 60.0447C10.9952 60.7327 13.8687 61.6142 16.0317 62.1082C19.6262 62.9414 26.5822 63.8424 30.4099 63.9781C31.1839 64.0072 32.2231 64.0072 32.2654 63.9781C32.3503 63.9295 32.9441 62.893 33.6335 61.6047C35.9875 57.216 37.684 53.0987 38.6064 49.5822C39.1578 47.451 39.5924 44.6124 39.8786 41.2509C39.953 40.3111 39.9847 37.1626 39.9211 36.0969C39.8256 34.3532 39.6559 32.9389 39.391 31.5535C39.3486 31.35 39.3378 31.1659 39.3592 31.1562C39.4015 31.1272 39.5287 31.0885 41.2571 30.633L40.9073 29.8775V29.8773H40.9075V29.8772ZM37.7053 31.592C37.8325 31.592 38.1717 34.5661 38.2565 36.4456C38.2778 36.8428 38.2671 37.1043 38.2459 37.1043C38.1612 37.1043 36.4539 36.1841 35.2347 35.4866C34.1743 34.8763 32.1597 33.6556 31.8417 33.4231C31.7354 33.3553 31.746 33.3456 32.6156 33.0743C34.0893 32.6189 37.5887 31.592 37.7053 31.592ZM30.5585 33.7428C30.654 33.7428 30.8977 33.8686 31.481 34.198C33.6652 35.4477 36.6343 36.9591 37.9067 37.4629C38.2989 37.6179 38.3412 37.5597 37.4401 38.1217C35.5103 39.3229 33.1031 40.5047 30.1554 41.6963C29.6359 41.9095 29.2012 42.0741 29.1907 42.0741C29.1695 42.0741 29.2329 41.8321 29.3177 41.5414C30.0281 39.129 30.4312 36.6877 30.4525 34.7308C30.463 33.762 30.463 33.762 30.5585 33.7331C30.5372 33.7428 30.5478 33.7428 30.5585 33.7428ZM29.0847 34.2561C29.1481 34.3142 29.1058 36.4843 29.0209 37.0752C28.8301 38.4897 28.5332 39.8071 28.0456 41.2895C27.9289 41.6477 27.8227 41.9482 27.8017 41.9675C27.7591 42.0159 26.3064 40.7178 25.8293 40.214C25.0022 39.3421 24.3555 38.4702 23.8783 37.6177C23.6345 37.1818 23.2528 36.3294 23.2845 36.3002C23.4542 36.1937 29.0423 34.2175 29.0847 34.2561ZM22.1499 36.7458C22.1605 36.7458 22.171 36.7458 22.1818 36.7555C22.2029 36.7749 22.2773 36.9299 22.3409 37.1043C22.6801 37.9471 23.4434 39.1871 24.101 39.9815C24.822 40.8535 25.7658 41.7834 26.5503 42.3937C26.8049 42.5875 27.038 42.7715 27.0698 42.8006C27.1335 42.8588 27.1547 42.849 25.4263 43.4497C23.4224 44.1472 21.238 44.8447 18.7355 45.5809C18.1377 45.757 17.5405 45.9346 16.9438 46.1138C16.8482 46.1429 16.8801 46.0944 17.1558 45.6973C18.3963 43.9244 20.2837 40.4466 21.3441 37.9858C21.5244 37.5596 21.7046 37.1334 21.7365 37.0365C21.7789 36.9008 21.8318 36.8524 21.9696 36.7845C22.0438 36.7653 22.1182 36.7458 22.1499 36.7458ZM20.0294 37.5499C20.0611 37.5694 19.5204 38.6059 18.9902 39.5553C17.9616 41.3862 16.8377 43.1883 15.332 45.3776C15.0775 45.7554 14.8337 46.1042 14.8018 46.143C14.7489 46.2108 14.7276 46.1913 14.558 45.8911C14.1974 45.242 13.9004 44.4088 13.7414 43.6434C13.5823 42.8877 13.6142 41.5703 13.7945 40.7566C13.9322 40.156 13.9218 40.1657 14.2398 40.0203C15.5971 39.3906 19.987 37.5112 20.0294 37.5499ZM38.3203 38.2282V38.635C38.3203 40.7954 38.0658 43.7598 37.6945 45.9202C37.6309 46.298 37.5777 46.6079 37.5673 46.6177C37.5673 46.6177 37.2598 46.5403 36.8993 46.4433C35.3089 45.9879 33.5805 45.3195 32.0217 44.5349C30.993 44.0214 29.4981 43.1785 29.5406 43.1397C29.551 43.1301 29.9964 42.917 30.5159 42.665C32.5944 41.677 34.5877 40.6113 36.3161 39.5554C36.9629 39.1581 37.9383 38.5188 38.1506 38.3444L38.3203 38.2282ZM12.0236 41.0955C12.066 41.0955 12.0554 41.173 11.9918 41.5218C11.9494 41.7738 11.8964 42.2388 11.8753 42.5583C11.7903 43.9728 12.045 45.0191 12.8084 46.4528C13.0205 46.8501 13.1902 47.1794 13.1795 47.189C13.1052 47.2473 6.08586 49.1268 3.88019 49.6789C3.22283 49.8435 2.65035 49.9889 2.60771 49.9984C2.53363 50.0179 2.52297 50.0083 2.55475 49.8434C2.7986 48.4194 3.98625 46.5594 5.64032 44.9899C6.74313 43.9437 7.62326 43.3334 9.12893 42.5486C10.2105 41.9868 11.8752 41.1441 12.0024 41.1052C12.0025 41.0955 12.0131 41.0955 12.0236 41.0955ZM28.5651 43.7984C28.5756 43.7888 28.8301 43.9148 29.1376 44.0794C31.4067 45.2807 34.5665 46.3948 37.2596 46.9663L37.5037 47.0149L37.1643 47.189C35.7541 47.906 31.1204 49.6691 26.3808 51.287C25.6914 51.5194 25.0129 51.752 24.8855 51.8004C24.7582 51.8488 24.6416 51.8779 24.6416 51.8683C24.6416 51.8585 24.8326 51.5194 25.0763 51.1029C26.4017 48.836 27.7378 46.0751 28.4164 44.1569C28.5015 43.9728 28.5543 43.8082 28.5651 43.7984ZM26.8791 44.3022C26.8899 44.3121 26.8049 44.5154 26.6988 44.7479C25.7764 46.7919 24.5674 49.0203 23.0194 51.5196C22.6272 52.1591 22.2984 52.6725 22.2876 52.6725C22.2772 52.6725 21.959 52.498 21.5773 52.285C19.3293 51.0255 17.3359 49.4755 16.0318 47.9739L15.8408 47.7608L16.8057 47.5186C20.2625 46.6564 23.1995 45.7264 26.1156 44.5833C26.5292 44.4283 26.8686 44.3022 26.8791 44.3022ZM37.3553 47.6445C37.3659 47.8673 36.8251 49.863 36.3797 51.3063C36.0086 52.5173 35.6904 53.4668 35.1073 55.1426C34.8529 55.8791 34.6303 56.4892 34.6196 56.4892C34.609 56.4892 34.5454 56.4796 34.4818 56.4603C31.3326 55.937 28.5121 55.2105 25.8612 54.2418C25.1189 53.9704 24.0586 53.5345 23.995 53.4861C23.9738 53.4665 24.6101 53.1954 25.4159 52.8757C30.2405 50.9479 35.2453 48.7584 36.9629 47.8188C37.1643 47.7026 37.3234 47.6445 37.3553 47.6445ZM13.1689 48.4002C13.1901 48.4195 11.8435 50.1924 9.95596 52.6046C9.2986 53.4474 8.53518 54.4355 8.24894 54.8036C7.9626 55.1718 7.52791 55.7531 7.28402 56.1019L6.83847 56.7316L6.36129 56.3635C5.79928 55.9371 4.82389 55.0265 4.38915 54.5227C3.47719 53.4863 2.86231 52.3915 2.61842 51.3938C2.50175 50.9287 2.50175 50.6961 2.60766 50.6672C2.76667 50.6285 5.59782 50.0181 8.24884 49.4561C9.72273 49.1462 11.4298 48.7781 12.0448 48.6425C12.6598 48.5066 13.1583 48.4002 13.1689 48.4002ZM14.5261 48.8749L14.8653 49.2236C16.3923 50.7833 17.951 51.9364 19.8384 52.9437C20.1778 53.1182 20.4322 53.273 20.4109 53.2829C20.3369 53.3313 13.858 55.4333 10.8573 56.3828C9.17142 56.9252 7.78227 57.3612 7.77181 57.3612C7.76125 57.3612 7.66575 57.3031 7.55955 57.2353L7.3688 57.1093L7.67627 56.7025C8.67292 55.3849 9.92433 53.9415 12.6494 50.9384L14.5261 48.8749ZM22.9877 54.4065C22.9982 54.3968 23.4647 54.5517 24.0373 54.7457C25.4159 55.2203 26.5078 55.5206 27.9713 55.8597C29.7739 56.2763 32.3823 56.6832 33.9199 56.7994C34.1532 56.8187 34.2804 56.8382 34.2379 56.8673C34.1636 56.906 32.605 57.3807 31.4598 57.7101C29.6359 58.2331 24.0692 59.7347 19.531 60.9264C18.6933 61.1492 17.9722 61.3333 17.9298 61.3429C17.8239 61.3623 17.4738 61.275 17.4738 61.2363C17.4738 61.217 17.7283 60.9167 18.0359 60.5873C19.5626 58.921 21.0791 57.061 22.3409 55.2978C22.6907 54.8133 22.9877 54.4161 22.9877 54.4065ZM21.1214 54.455C21.1319 54.4647 20.3792 55.569 19.0645 57.4677C18.5024 58.2718 17.8767 59.1825 17.654 59.5022C17.442 59.8122 17.1239 60.2967 16.9437 60.5678L16.6361 61.062L16.4771 61.0232C16.0953 60.9263 13.4127 60.064 12.7022 59.8025C11.8221 59.4828 10.9102 59.0953 10.2315 58.766C9.38339 58.3493 8.32312 57.7293 8.40785 57.71C8.42903 57.7004 9.88174 57.3418 11.6312 56.9059C16.2756 55.753 18.8521 55.0846 20.5382 54.6002C20.8458 54.513 21.1108 54.4452 21.1214 54.455ZM34.3227 57.2837H34.3332C34.3757 57.3806 32.658 61.7401 32.0322 63.1156C31.8945 63.4256 31.8417 63.5033 31.7673 63.4934C31.587 63.4839 29.0953 63.1642 27.5788 62.9607C24.9387 62.5926 20.5064 61.8852 19.3931 61.6529L19.1387 61.6045L20.7184 61.2749C24.1116 60.5774 25.7445 60.1996 27.3985 59.7346C29.4875 59.1534 31.5553 58.4268 33.644 57.5356C33.9727 57.3999 34.2485 57.2933 34.3227 57.2837Z" fill="url(#paint0_linear_5_2309)"/>
<path d="M26.4444 0.00049619C26.2112 -0.0284076 22.4468 1.2116 20.0187 2.11244C16.7422 3.33323 14.1975 4.49582 12.6281 5.50311C12.045 5.8811 11.3132 6.54946 11.1968 6.81098C11.1544 6.90787 11.1331 7.02411 11.1331 7.14035L12.554 8.37071L15.9364 9.35884L23.9845 10.6764L33.1881 12.1199L33.2836 11.3933C33.2519 11.3933 33.2306 11.3837 33.199 11.3837L31.9899 11.2092L31.7462 10.8121C30.495 8.79698 29.1165 6.29754 28.3107 4.61188C27.6852 3.30401 27.0913 1.79289 26.7626 0.707812C26.5823 0.049056 26.5612 0.0103243 26.4447 0.000674786V0.0004512H26.4444V0.00049619ZM26.2746 0.49472H26.2855C26.2959 0.50428 26.3383 0.775716 26.3808 1.09522C26.5609 2.45169 26.8899 3.75933 27.4094 5.17378C27.8016 6.23947 27.8016 6.18139 27.3457 6.05537C26.2642 5.7842 21.4185 5.01885 17.9087 4.57323C17.3467 4.50537 16.8695 4.43761 16.8695 4.42796C16.8271 4.38922 19.4037 3.15878 20.5383 2.67452C21.991 2.06406 25.9778 0.543101 26.2746 0.49472ZM16.0529 4.83475L16.4666 4.96055C18.7144 5.65818 24.3659 6.64635 27.4835 6.87884C27.8333 6.90792 28.1303 6.93705 28.1408 6.93705C28.1513 6.94669 27.8546 7.09202 27.4728 7.25664C25.9673 7.94448 24.313 8.78733 23.1678 9.43644C22.8286 9.6301 22.521 9.78521 22.4787 9.78521C22.4363 9.78521 22.2137 9.74643 21.9804 9.71735L21.5563 9.65914L20.496 8.70969C18.6298 7.0532 17.1665 5.77446 16.6045 5.28998L16.0529 4.83475ZM15.6289 5.135L17.124 6.8401C17.9404 7.77981 18.7675 8.70009 18.9479 8.90344C19.128 9.10702 19.2765 9.27177 19.266 9.28142C19.2235 9.31046 17.103 8.93257 15.9788 8.70018C14.8231 8.45791 14.3459 8.34167 13.6355 8.13832L13.0523 7.96387V7.82815C13.0629 7.17904 13.9643 6.21034 15.4911 5.2223L15.6289 5.135ZM28.3318 7.46008C28.3743 7.46008 28.4271 7.54724 28.5544 7.8088C28.9149 8.53533 30.0391 10.4923 30.3145 10.8701C30.3996 10.9962 30.5478 11.0058 29.0529 10.783C25.4584 10.25 24.3025 10.0759 24.3025 10.0565C24.3025 10.0468 24.4085 9.97896 24.5464 9.9111C25.6598 9.34933 26.7837 8.63236 27.7805 7.86701C28.0244 7.68291 28.2471 7.50855 28.2894 7.47943C28.2999 7.46008 28.3212 7.45043 28.3318 7.46008Z" fill="url(#paint1_linear_5_2309)"/>
<path d="M11.2708 6.67529C11.2708 6.67529 11.0376 7.0145 11.2603 7.51828C11.3982 7.82818 11.8011 8.20594 12.257 8.59353C12.257 8.59353 16.9755 12.7979 17.5481 13.3987C20.1564 16.1499 21.2911 18.8625 21.3971 22.6019C21.4607 25.0045 20.9622 27.1164 19.7217 29.5674C17.5162 33.9656 12.8612 38.8192 5.68274 44.2056L6.73264 43.8858C7.41123 43.4207 8.33376 42.9268 10.4968 41.8418C15.4909 39.3422 21.1108 37.0462 28.0031 34.6825C37.9276 31.2723 54.2465 27.2809 63.535 25.9829L64.5 25.8472L64.3515 25.6341C63.5034 24.4328 62.92 23.6869 62.2201 22.8925C60.1844 20.5868 57.7139 18.7172 54.6918 17.1671C50.5353 15.0456 45.1591 13.389 38.3519 12.1587C37.0689 11.926 34.2484 11.4805 31.9581 11.1608C27.1016 10.4731 23.963 9.99833 20.5064 9.45582C19.2659 9.26198 17.4101 8.97142 16.1801 8.72929C15.5439 8.60322 14.3246 8.3417 13.3703 8.04141C12.6069 7.77002 11.5041 7.49876 11.2708 6.67529ZM14.0066 9.09731C14.0171 9.08775 14.1867 9.14569 14.4095 9.21355C14.8124 9.33935 15.332 9.48472 15.9471 9.63983C16.4125 9.75678 16.8791 9.8698 17.3467 9.97886C17.9829 10.1241 18.513 10.2598 18.5236 10.2598C18.598 10.3276 19.6689 13.4565 20.0294 14.6578C20.1671 15.1133 20.2733 15.5007 20.2627 15.5007C20.2518 15.5105 20.1354 15.3457 19.9976 15.1229C18.7569 13.1272 16.7953 11.1025 14.5261 9.47494C14.2293 9.28137 14.0066 9.10696 14.0066 9.09731ZM19.2235 10.4148C19.2765 10.4148 19.5098 10.4439 19.796 10.502C21.5986 10.8701 24.8327 11.432 26.9003 11.7517C27.2502 11.8001 27.526 11.8584 27.526 11.8776C27.526 11.8971 27.3986 11.9648 27.2395 12.0424C26.8898 12.207 25.4794 12.9723 25.013 13.2629C23.8359 13.9798 22.7757 14.7548 22.0121 15.4523C21.7047 15.7333 21.4395 15.9658 21.4395 15.9658C21.4395 15.9658 21.3761 15.8012 21.3228 15.5976C20.9413 14.251 20.1459 12.2553 19.4249 10.8507C19.3082 10.6279 19.2127 10.4244 19.2127 10.4051C19.2127 10.4245 19.2127 10.4148 19.2235 10.4148ZM28.406 12.0133C28.4696 12.0326 28.5757 12.362 28.7877 13.0885C29.1801 14.4933 29.3604 16.0627 29.2967 17.5256C29.2754 17.9324 29.2543 18.3102 29.233 18.3588L29.2012 18.4555L28.6499 18.2909C27.5153 17.9615 25.6704 17.4673 24.0905 17.0605C23.1891 16.8377 22.4576 16.6343 22.4576 16.6149C22.4576 16.5567 23.7725 15.3555 24.3344 14.9002C25.4052 14.0379 28.3105 11.9842 28.406 12.0133ZM29.1376 12.1101C29.1695 12.0811 33.5275 12.7688 35.5104 13.1176C36.9843 13.3791 39.1261 13.7861 39.2533 13.8346C39.3169 13.8539 39.0942 13.9701 38.3838 14.2607C35.5845 15.4137 33.5061 16.4501 31.4387 17.7096C30.8979 18.039 30.4419 18.3102 30.4313 18.3102C30.4208 18.3102 30.4102 18.0293 30.4102 17.6902C30.4102 15.8496 30.0072 13.9896 29.2648 12.4202C29.1906 12.2652 29.127 12.1199 29.1376 12.1101ZM40.409 14.1446C40.4409 14.1736 40.303 14.9584 40.1758 15.4233C39.7941 16.8668 38.7656 19.0079 37.5039 21.0228C37.281 21.3813 37.0796 21.6719 37.0583 21.6816C37.0373 21.6912 36.751 21.5459 36.4222 21.3715C35.1922 20.7127 33.7926 20.0928 32.2656 19.5114C31.8417 19.3468 31.4704 19.2111 31.4598 19.1919C31.3854 19.1337 34.7998 17.0702 36.6025 16.0821C38.0339 15.2877 40.3666 14.1058 40.409 14.1446ZM41.2149 14.2608C41.3104 14.2608 43.2402 14.7452 44.2474 15.0165C46.7393 15.6947 49.6021 16.6537 51.4683 17.4287L52.2423 17.7485L51.7017 17.8646C47.1423 18.8236 43.2402 19.9282 39.4759 21.3232C39.1684 21.4394 38.8927 21.5363 38.8717 21.5363C38.8504 21.5363 38.9564 21.3135 39.0943 21.0422C40.2289 18.8431 40.9605 16.5471 41.1406 14.5901C41.1514 14.406 41.183 14.2608 41.2149 14.2608ZM22.0016 18.2909C22.0333 18.2618 23.5073 18.5816 24.3025 18.7848C25.5113 19.0949 28.0772 19.8795 28.0772 19.9377C28.0772 19.9474 27.791 20.1702 27.4518 20.4416C26.0628 21.4975 24.7266 22.6115 23.1254 24.0259C22.6482 24.4426 22.2454 24.7817 22.2243 24.7817C22.203 24.7817 22.1926 24.7234 22.203 24.6459C22.4468 23.0183 22.394 20.9259 22.0546 18.8043C22.0227 18.5329 21.991 18.3006 22.0016 18.2909ZM52.9742 18.32C52.9952 18.3393 52.2955 19.3468 51.8502 19.9183C51.2141 20.7514 50.2807 21.856 48.1706 24.2779C47.0575 25.5566 45.8061 27.0001 45.3927 27.4845C44.9684 27.9688 44.6186 28.3756 44.6079 28.3756C44.5973 28.3756 44.4597 28.2014 44.3111 27.9883C43.1235 26.3607 41.7026 24.9366 40.0166 23.6578C39.6985 23.4156 39.3488 23.154 39.2321 23.0765C39.1154 22.999 39.0199 22.9215 39.0199 22.9119C39.0199 22.8829 40.8224 22.1755 42.1904 21.6719C44.5869 20.7806 47.8524 19.715 50.302 19.0271C51.585 18.659 52.9529 18.3006 52.9742 18.32ZM53.7906 18.5136C53.8329 18.504 54.0875 18.6203 54.395 18.7848C56.9717 20.1314 59.4951 21.8656 61.4887 23.6482C62.0507 24.152 63.4397 25.4695 63.4184 25.4791C63.4184 25.4791 62.9307 25.5179 62.3582 25.5566C57.8941 25.8667 52.179 26.7288 46.6863 27.9397C46.3152 28.0171 45.9866 28.085 45.9653 28.085C45.9443 28.085 46.3577 27.7072 46.8774 27.2519C50.1007 24.4135 51.5747 22.6212 53.3135 19.4242C53.5573 18.9497 53.7695 18.5428 53.7906 18.5136C53.78 18.5136 53.78 18.5136 53.7906 18.5136ZM30.1767 20.7226C30.3253 20.7515 31.7037 21.3426 32.7428 21.8172C33.6971 22.253 35.1287 22.9507 35.2028 23.0087C35.2134 23.0183 34.7043 23.2606 34.079 23.5416C32.0854 24.4522 30.3783 25.3143 28.5968 26.3025C28.0879 26.5835 27.6638 26.8161 27.6532 26.8161C27.6108 26.8161 27.6213 26.7771 27.9077 26.3025C28.862 24.7138 29.6254 22.815 30.0603 20.9646C30.1025 20.8193 30.145 20.7226 30.1767 20.7226ZM28.7982 20.955C28.8301 20.9841 28.4696 22.1756 28.247 22.8247C27.8121 24.055 27.0806 25.5953 26.3702 26.7579C26.2004 27.029 25.946 27.4262 25.8081 27.649L25.5431 28.0365L24.9493 27.5135C24.2602 26.9032 23.698 26.5254 22.9772 26.1862C22.6907 26.0507 22.4681 25.9343 22.4681 25.9151C22.4681 25.8376 24.2813 24.336 25.6703 23.251C26.667 22.4662 28.7665 20.9259 28.7982 20.955ZM37.2282 24.1229L37.7478 24.4328C38.9351 25.1401 40.3347 26.0797 41.4059 26.9032C42.0101 27.3584 43.1764 28.3176 43.4099 28.5501L43.5369 28.6762L42.6783 28.8989C37.8218 30.1291 34.0683 31.2238 29.689 32.6965C29.2012 32.8611 28.7877 32.9967 28.7558 32.9967C28.6924 32.9967 28.6392 33.0451 29.7315 32.1247C32.5308 29.7708 35.0119 27.1744 36.857 24.6459L37.2282 24.1229ZM35.012 24.6266C35.0331 24.6459 33.5805 26.5156 32.7109 27.5716C31.6718 28.831 29.8268 30.9429 28.5544 32.3184C28.0244 32.8901 27.5685 33.3648 27.5472 33.3745C27.5153 33.3842 27.5047 33.2389 27.5047 33.0161C27.5047 31.8437 27.1761 30.594 26.6034 29.5285C26.3595 29.0829 26.3171 28.9763 26.3703 28.9279C26.5717 28.7631 29.6573 27.155 31.6082 26.196C32.923 25.5566 34.9799 24.6072 35.012 24.6266ZM21.6091 27.6298C21.641 27.6298 21.8849 27.746 22.1606 27.8817C22.8392 28.2207 23.4436 28.5985 23.9844 29.0055C24.0055 29.0248 23.7299 29.2283 23.3694 29.4704C22.362 30.1291 20.8352 31.1852 19.9447 31.8343C19.0113 32.5124 18.9797 32.5318 19.0856 32.3865C19.7855 31.408 20.1353 30.8558 20.5066 30.1486C20.8352 29.519 21.1638 28.773 21.3971 28.1239C21.4819 27.843 21.588 27.6298 21.6091 27.6298ZM25.1826 30.1873C25.2355 30.1777 25.2993 30.2648 25.5855 30.6524C26.1899 31.4757 26.6564 32.5802 26.7732 33.4715L26.7942 33.6653L25.3418 34.1788C22.7437 35.099 20.3475 36.0097 18.725 36.6877C18.2692 36.8816 17.4739 37.2302 16.9544 37.4629C16.4348 37.705 16.0106 37.8891 16.0106 37.8794C16.0106 37.8698 16.3393 37.6469 16.7422 37.3756C19.9128 35.2735 22.659 32.9677 24.716 30.6621C24.9387 30.4198 25.1403 30.197 25.1613 30.1873L25.1826 30.1873ZM23.5391 30.5555C23.5816 30.5942 22.3728 31.8439 21.5457 32.6092C19.4993 34.5178 17.474 36.0097 14.9609 37.4629C14.6428 37.6469 14.3566 37.8115 14.3247 37.831C14.2504 37.8698 14.3458 37.7728 15.4486 36.6781C16.1485 35.9902 16.6786 35.409 17.283 34.6922C17.6859 34.2176 17.7602 34.1497 18.3435 33.7718C19.9022 32.7448 23.4967 30.5167 23.5391 30.5555Z" fill="url(#paint2_radial_5_2309)"/>
<defs>
<linearGradient id="paint0_linear_5_2309" x1="11.0541" y1="57.669" x2="15.8795" y2="54.5482" gradientUnits="userSpaceOnUse">
<stop stop-color="#909CA9"/>
<stop offset="1" stop-color="#EDEDEE"/>
</linearGradient>
<linearGradient id="paint1_linear_5_2309" x1="11.1703" y1="6.04124" x2="15.2518" y2="6.04124" gradientUnits="userSpaceOnUse">
<stop stop-color="#939FAB"/>
<stop offset="1" stop-color="#DCDEE1"/>
</linearGradient>
<radialGradient id="paint2_radial_5_2309" cx="0" cy="0" r="1" gradientUnits="userSpaceOnUse" gradientTransform="translate(31.766 23.1439) rotate(-172.186) scale(5.25269 9.63561)">
<stop stop-color="#EE352C"/>
<stop offset="1" stop-color="#A91D22"/>
</radialGradient>
</defs>
</svg>
