<svg width="58" height="58" viewBox="0 0 58 58" fill="none" xmlns="http://www.w3.org/2000/svg">
<rect width="58" height="58" rx="29" fill="white"/>
<mask id="mask0_9_817" style="mask-type:luminance" maskUnits="userSpaceOnUse" x="11" y="11" width="36" height="36">
<path d="M11 11H47V47H11V11Z" fill="white"/>
</mask>
<g mask="url(#mask0_9_817)">
<path d="M46.443 23.0403C44.4917 15.5036 38.5892 11.0049 30.653 11.0049H11.0017L11.3892 11.9358C13.0542 15.9402 16.823 18.5298 20.9892 18.5311H26.3405L26.3842 18.5298C26.5867 18.5141 27.3392 18.4669 28.4655 18.4669C29.5505 18.4669 30.6542 18.5114 31.7455 18.5993L31.8517 18.6072C36.0267 18.952 41.7467 20.0967 45.2817 23.5871L45.328 23.6316C45.3455 23.65 45.3642 23.6683 45.3817 23.688L47.0642 25.445L46.443 23.0403ZM46.9817 31.7269L46.9767 31.799C45.9155 41.1898 39.593 47.0219 30.478 47.0219H17.9405V29.2435H18.5755C22.2455 29.2435 25.2317 32.376 25.2317 36.2256V39.3738H30.7842C33.5192 39.3738 35.8217 38.4323 37.4442 36.6491C39.0955 34.8357 39.9692 32.2134 39.9692 29.0678V28.959C39.9692 26.5228 39.458 24.4236 38.4505 22.7151L37.5105 21.122L39.198 21.7357C41.293 22.4988 42.9917 23.5136 44.248 24.7553C46.083 26.5687 47.003 28.9131 46.9817 31.7269Z" fill="black"/>
</g>
</svg>
